<?xml version="1.0" encoding="UTF-8"?>
<!DOCTYPE svg PUBLIC "-//W3C//DTD SVG 1.1//EN" "http://www.w3.org/Graphics/SVG/1.1/DTD/svg11.dtd">
<svg xmlns="http://www.w3.org/2000/svg" version="1.1" width="423px" height="142px" style="shape-rendering:geometricPrecision; text-rendering:geometricPrecision; image-rendering:optimizeQuality; fill-rule:evenodd; clip-rule:evenodd" xmlns:xlink="http://www.w3.org/1999/xlink">
<g><path style="opacity:1" fill="#863485" d="M 139.5,20.5 C 145.423,21.1382 150.756,23.1382 155.5,26.5C 154.726,27.1471 153.726,27.4805 152.5,27.5C 146.277,25.0422 140.277,25.5422 134.5,29C 138.167,29.3333 141.833,29.6667 145.5,30C 143.833,31 142.167,32 140.5,33C 143.354,36.3001 146.687,39.1334 150.5,41.5C 152.443,45.0528 154.11,48.7194 155.5,52.5C 161.255,59.6928 166.755,67.0261 172,74.5C 176.62,70.6432 178.454,65.6432 177.5,59.5C 178.268,60.2625 178.768,61.2625 179,62.5C 178.122,73.8257 180.288,84.4924 185.5,94.5C 186.931,96.9377 188.931,98.6044 191.5,99.5C 192.833,102.167 194.833,104.167 197.5,105.5C 196.002,109.182 193.336,111.016 189.5,111C 188.107,109.829 187.273,108.329 187,106.5C 182.061,104.506 179.894,100.839 180.5,95.5C 178.284,95.7254 176.617,94.8921 175.5,93C 176.167,92.3333 176.833,91.6667 177.5,91C 175.295,89.294 172.962,87.794 170.5,86.5C 168.272,80.7862 164.772,76.1195 160,72.5C 159.383,71.5509 159.549,70.7175 160.5,70C 159.167,69.3333 157.833,68.6667 156.5,68C 156.957,67.586 157.291,67.086 157.5,66.5C 156.372,65.7379 155.205,65.0712 154,64.5C 153.657,61.8073 152.324,59.8073 150,58.5C 149.479,55.0815 148.645,51.7481 147.5,48.5C 146.167,47.8333 144.833,47.1667 143.5,46.5C 144.641,45.5745 144.641,44.7412 143.5,44C 140.099,44.266 138.433,42.766 138.5,39.5C 136.876,39.3601 135.71,40.0267 135,41.5C 133.345,38.847 131.345,36.5136 129,34.5C 127.991,32.9751 127.491,31.3084 127.5,29.5C 124.769,28.9729 122.102,28.1396 119.5,27C 119.043,26.586 118.709,26.086 118.5,25.5C 119.243,24.8182 119.909,24.1515 120.5,23.5C 126.736,21.9179 133.07,20.9179 139.5,20.5 Z"/></g>
<g><path style="opacity:1" fill="#782f76" d="M 139.5,20.5 C 133.07,20.9179 126.736,21.9179 120.5,23.5C 117.821,23.6726 115.487,24.6726 113.5,26.5C 114.167,27.1667 114.833,27.8333 115.5,28.5C 114.5,29.3333 113.5,30.1667 112.5,31C 115.179,31.338 117.179,32.6714 118.5,35C 118.355,35.772 118.022,36.4387 117.5,37C 120.982,38.4881 123.982,40.6548 126.5,43.5C 127.655,47.6306 128.988,51.6306 130.5,55.5C 133.957,55.9601 135.623,57.9601 135.5,61.5C 136.5,61.5 137.5,61.5 138.5,61.5C 136.504,64.8409 137.337,67.1743 141,68.5C 141.414,68.0426 141.914,67.7093 142.5,67.5C 147.757,68.757 151.091,72.0903 152.5,77.5C 154.026,78.9056 155.693,80.0723 157.5,81C 157.043,81.414 156.709,81.914 156.5,82.5C 158.02,84.6621 159.02,86.9954 159.5,89.5C 160.833,89.5 162.167,89.5 163.5,89.5C 163.525,92.9604 164.192,96.2937 165.5,99.5C 169.915,104.253 174.581,108.587 179.5,112.5C 178.167,113.167 176.833,113.833 175.5,114.5C 176.5,114.833 177.5,115.167 178.5,115.5C 180.788,114.678 183.122,114.011 185.5,113.5C 187.333,113.585 188.666,114.252 189.5,115.5C 177.011,116.495 164.344,116.829 151.5,116.5C 151.5,115.5 151.5,114.5 151.5,113.5C 154.187,113.664 156.854,113.497 159.5,113C 157.75,111.681 155.75,111.181 153.5,111.5C 152.82,108.938 152.653,106.271 153,103.5C 149.283,98.8406 144.45,95.8406 138.5,94.5C 136.263,89.7628 133.096,85.7628 129,82.5C 127.731,83.9047 127.231,85.5714 127.5,87.5C 126.778,87.0825 126.278,86.4158 126,85.5C 125.5,78.1742 125.334,70.8409 125.5,63.5C 124.167,63.5 122.833,63.5 121.5,63.5C 121.762,62.0222 121.429,60.6888 120.5,59.5C 117.25,55.9775 114.25,52.3108 111.5,48.5C 105.624,43.9853 98.957,41.652 91.5,41.5C 91.5,40.1667 91.5,38.8333 91.5,37.5C 104.337,22.7417 120.337,17.075 139.5,20.5 Z"/></g>
<g><path style="opacity:1" fill="#883387" d="M 155.5,26.5 C 167.391,33.2614 175.224,43.2614 179,56.5C 181.277,57.1172 183.444,57.7839 185.5,58.5C 182.615,58.1936 179.948,58.5269 177.5,59.5C 178.454,65.6432 176.62,70.6432 172,74.5C 166.755,67.0261 161.255,59.6928 155.5,52.5C 154.11,48.7194 152.443,45.0528 150.5,41.5C 146.687,39.1334 143.354,36.3001 140.5,33C 142.167,32 143.833,31 145.5,30C 141.833,29.6667 138.167,29.3333 134.5,29C 140.277,25.5422 146.277,25.0422 152.5,27.5C 153.726,27.4805 154.726,27.1471 155.5,26.5 Z"/></g>
<g><path style="opacity:1" fill="#80327e" d="M 120.5,23.5 C 119.909,24.1515 119.243,24.8182 118.5,25.5C 118.709,26.086 119.043,26.586 119.5,27C 122.102,28.1396 124.769,28.9729 127.5,29.5C 127.491,31.3084 127.991,32.9751 129,34.5C 131.345,36.5136 133.345,38.847 135,41.5C 135.71,40.0267 136.876,39.3601 138.5,39.5C 138.433,42.766 140.099,44.266 143.5,44C 144.641,44.7412 144.641,45.5745 143.5,46.5C 144.833,47.1667 146.167,47.8333 147.5,48.5C 148.645,51.7481 149.479,55.0815 150,58.5C 152.324,59.8073 153.657,61.8073 154,64.5C 155.205,65.0712 156.372,65.7379 157.5,66.5C 157.291,67.086 156.957,67.586 156.5,68C 157.833,68.6667 159.167,69.3333 160.5,70C 159.549,70.7175 159.383,71.5509 160,72.5C 164.772,76.1195 168.272,80.7862 170.5,86.5C 172.962,87.794 175.295,89.294 177.5,91C 176.833,91.6667 176.167,92.3333 175.5,93C 176.617,94.8921 178.284,95.7254 180.5,95.5C 179.894,100.839 182.061,104.506 187,106.5C 187.273,108.329 188.107,109.829 189.5,111C 193.336,111.016 196.002,109.182 197.5,105.5C 200.876,103.114 203.042,99.7811 204,95.5C 204.417,96.756 205.25,97.4226 206.5,97.5C 203.564,106.102 197.898,112.102 189.5,115.5C 188.666,114.252 187.333,113.585 185.5,113.5C 183.122,114.011 180.788,114.678 178.5,115.5C 177.5,115.167 176.5,114.833 175.5,114.5C 176.833,113.833 178.167,113.167 179.5,112.5C 174.581,108.587 169.915,104.253 165.5,99.5C 164.192,96.2937 163.525,92.9604 163.5,89.5C 162.167,89.5 160.833,89.5 159.5,89.5C 159.02,86.9954 158.02,84.6621 156.5,82.5C 156.709,81.914 157.043,81.414 157.5,81C 155.693,80.0723 154.026,78.9056 152.5,77.5C 151.091,72.0903 147.757,68.757 142.5,67.5C 141.914,67.7093 141.414,68.0426 141,68.5C 137.337,67.1743 136.504,64.8409 138.5,61.5C 137.5,61.5 136.5,61.5 135.5,61.5C 135.623,57.9601 133.957,55.9601 130.5,55.5C 128.988,51.6306 127.655,47.6306 126.5,43.5C 123.982,40.6548 120.982,38.4881 117.5,37C 118.022,36.4387 118.355,35.772 118.5,35C 117.179,32.6714 115.179,31.338 112.5,31C 113.5,30.1667 114.5,29.3333 115.5,28.5C 114.833,27.8333 114.167,27.1667 113.5,26.5C 115.487,24.6726 117.821,23.6726 120.5,23.5 Z"/></g>
<g><path style="opacity:0.93" fill="#070707" d="M 347.5,52.5 C 349.827,52.2471 351.827,52.9137 353.5,54.5C 355.022,57.6396 355.855,60.9729 356,64.5C 361.829,60.4486 367.162,61.1153 372,66.5C 377.781,60.335 383.781,60.0017 390,65.5C 391.982,63.642 393.148,61.3087 393.5,58.5C 395.5,55.8333 397.5,55.8333 399.5,58.5C 400.348,60.4086 400.682,62.4086 400.5,64.5C 406.643,65.0262 407.976,67.8595 404.5,73C 403.207,73.49 401.873,73.6567 400.5,73.5C 400.5,74.5 400.5,75.5 400.5,76.5C 404.57,75.508 406.57,77.008 406.5,81C 406.325,82.6581 405.658,83.9914 404.5,85C 398.617,86.9224 394.451,85.0891 392,79.5C 389.189,85.8229 384.355,88.3229 377.5,87C 371.874,84.513 371.208,81.1797 375.5,77C 373.516,74.0344 371.516,74.201 369.5,77.5C 372.016,80.2297 371.683,82.7297 368.5,85C 362.936,87.1502 358.102,85.9835 354,81.5C 353.347,84.8198 351.347,86.8198 348,87.5C 340.738,84.5721 335.405,79.5721 332,72.5C 331.667,76.1667 331.333,79.8333 331,83.5C 328.9,89.6546 326.234,89.988 323,84.5C 321.153,75.467 321.153,66.467 323,57.5C 325.153,55.5561 327.653,55.0561 330.5,56C 335.046,60.8774 339.213,66.044 343,71.5C 343.307,66.1181 343.974,60.7848 345,55.5C 346.045,54.6266 346.878,53.6266 347.5,52.5 Z M 388.5,69.5 C 391.332,71.4065 392.166,74.0732 391,77.5C 389.833,75 388,73.1667 385.5,72C 386.942,71.6232 387.942,70.7899 388.5,69.5 Z"/></g>
<g><path style="opacity:0.928" fill="#060606" d="M 275.5,66.5 C 276.573,67.2506 276.74,68.2506 276,69.5C 275.29,68.0267 274.124,67.3601 272.5,67.5C 273.426,72.4632 274.092,77.4632 274.5,82.5C 271.675,82.8384 269.508,81.8384 268,79.5C 265.809,80.8334 263.976,82.5 262.5,84.5C 258.006,84.8373 255.172,82.8373 254,78.5C 247.33,86.1037 239.164,88.9371 229.5,87C 228.427,85.6871 227.76,84.1871 227.5,82.5C 228.033,73.7856 228.866,65.119 230,56.5C 243.142,50.9966 252.142,54.9966 257,68.5C 262.579,62.6154 268.746,61.9487 275.5,66.5 Z M 238.5,63.5 C 243.863,63.6881 246.03,66.3548 245,71.5C 243.587,73.4136 241.753,74.7469 239.5,75.5C 238.509,71.5546 238.176,67.5546 238.5,63.5 Z"/></g>
<g><path style="opacity:0.863" fill="#070707" d="M 262.5,84.5 C 263.976,82.5 265.809,80.8334 268,79.5C 269.508,81.8384 271.675,82.8384 274.5,82.5C 274.092,77.4632 273.426,72.4632 272.5,67.5C 274.124,67.3601 275.29,68.0267 276,69.5C 276.74,68.2506 276.573,67.2506 275.5,66.5C 277.719,64.3392 279.052,61.6726 279.5,58.5C 281.755,56.3122 283.922,56.6455 286,59.5C 286.494,61.1341 286.66,62.8008 286.5,64.5C 290.717,64.2149 292.883,66.2149 293,70.5C 296.936,63.9478 302.436,62.1145 309.5,65C 312.949,68.9385 314.615,73.6052 314.5,79C 313.703,85.4603 310.536,86.9603 305,83.5C 300.931,85.0934 297.098,84.76 293.5,82.5C 287.203,87.2345 282.036,86.2345 278,79.5C 275.891,85.5825 272.558,86.5825 268,82.5C 266.416,83.8613 264.582,84.528 262.5,84.5 Z M 275.5,70.5 C 276.117,70.6107 276.617,70.944 277,71.5C 277.667,73.5 277.667,75.5 277,77.5C 276.56,75.1341 276.06,72.8008 275.5,70.5 Z M 291.5,72.5 C 291.5,73.8333 291.5,75.1667 291.5,76.5C 289.833,76.5 288.167,76.5 286.5,76.5C 286.5,75.5 286.5,74.5 286.5,73.5C 288.216,73.3713 289.883,73.038 291.5,72.5 Z"/></g>
<g><path style="opacity:1" fill="#902d71" d="M 75.5,41.5 C 76.2625,42.2679 77.2625,42.7679 78.5,43C 75.4873,43.9089 72.4873,44.7422 69.5,45.5C 69.719,46.675 69.3857,47.675 68.5,48.5C 66.5,49.5 64.5,50.5 62.5,51.5C 61.7515,53.3325 60.7515,54.9991 59.5,56.5C 60.7277,58.321 62.3944,59.321 64.5,59.5C 64.5,60.8333 64.5,62.1667 64.5,63.5C 65.552,63.3505 66.552,63.5172 67.5,64C 71.1929,68.164 74.1929,72.664 76.5,77.5C 78.6619,80.5019 81.4952,82.5019 85,83.5C 85.49,84.7932 85.6567,86.1266 85.5,87.5C 86.8333,87.5 88.1667,87.5 89.5,87.5C 89.5,91.5 91.5,93.5 95.5,93.5C 95.5,95.5 95.5,97.5 95.5,99.5C 97.3904,99.2965 98.8904,99.9632 100,101.5C 102.865,105.357 105.698,109.19 108.5,113C 106.5,113.333 104.5,113.667 102.5,114C 117.481,115.666 132.481,115.833 147.5,114.5C 146.388,113.735 145.721,112.735 145.5,111.5C 147.718,111.614 149.718,112.28 151.5,113.5C 151.5,114.5 151.5,115.5 151.5,116.5C 128.167,116.5 104.833,116.5 81.5,116.5C 82.7175,115.839 84.0508,115.172 85.5,114.5C 84.0124,112.423 82.0124,111.423 79.5,111.5C 79.5,110.167 79.5,108.833 79.5,107.5C 76.7081,107.548 74.8747,106.215 74,103.5C 72.2738,97.9678 71.2738,92.3011 71,86.5C 67.956,85.1971 66.7893,82.8638 67.5,79.5C 66.1667,79.5 64.8333,79.5 63.5,79.5C 63.5,78.1667 63.5,76.8333 63.5,75.5C 59.0975,74.3656 54.7642,73.0323 50.5,71.5C 50.7373,70.209 50.404,69.209 49.5,68.5C 53.4303,54.9036 62.097,45.9036 75.5,41.5 Z"/></g>
<g><path style="opacity:1" fill="#a13067" d="M 44.5,71.5 C 45.9516,72.3019 47.6183,72.8019 49.5,73C 45.9257,73.4693 42.5924,74.6359 39.5,76.5C 38.2782,79.857 36.2782,82.6903 33.5,85C 32.2068,85.49 30.8734,85.6567 29.5,85.5C 29.1718,90.8746 29.5052,96.2079 30.5,101.5C 31.7305,104.732 33.7305,107.399 36.5,109.5C 37.3333,108.5 38.1667,107.5 39,106.5C 40.2427,109.319 41.7427,111.986 43.5,114.5C 42.7573,115.182 42.0906,115.849 41.5,116.5C 31.0721,112.902 26.0721,105.569 26.5,94.5C 26.9958,82.5018 32.9958,74.8352 44.5,71.5 Z"/></g>
<g><path style="opacity:1" fill="#9b2e79" d="M 91.5,37.5 C 91.5,38.8333 91.5,40.1667 91.5,41.5C 98.957,41.652 105.624,43.9853 111.5,48.5C 114.25,52.3108 117.25,55.9775 120.5,59.5C 121.429,60.6888 121.762,62.0222 121.5,63.5C 122.833,63.5 124.167,63.5 125.5,63.5C 125.334,70.8409 125.5,78.1742 126,85.5C 126.278,86.4158 126.778,87.0825 127.5,87.5C 129.838,96.4949 134.504,104.162 141.5,110.5C 142.689,111.429 144.022,111.762 145.5,111.5C 145.721,112.735 146.388,113.735 147.5,114.5C 132.481,115.833 117.481,115.666 102.5,114C 104.5,113.667 106.5,113.333 108.5,113C 105.698,109.19 102.865,105.357 100,101.5C 98.8904,99.9632 97.3904,99.2965 95.5,99.5C 95.5,97.5 95.5,95.5 95.5,93.5C 91.5,93.5 89.5,91.5 89.5,87.5C 88.1667,87.5 86.8333,87.5 85.5,87.5C 85.6567,86.1266 85.49,84.7932 85,83.5C 81.4952,82.5019 78.6619,80.5019 76.5,77.5C 74.1929,72.664 71.1929,68.164 67.5,64C 66.552,63.5172 65.552,63.3505 64.5,63.5C 64.5,62.1667 64.5,60.8333 64.5,59.5C 62.3944,59.321 60.7277,58.321 59.5,56.5C 60.7515,54.9991 61.7515,53.3325 62.5,51.5C 64.5,50.5 66.5,49.5 68.5,48.5C 69.3857,47.675 69.719,46.675 69.5,45.5C 72.4873,44.7422 75.4873,43.9089 78.5,43C 77.2625,42.7679 76.2625,42.2679 75.5,41.5C 80.9959,40.4307 86.3292,39.0974 91.5,37.5 Z"/></g>
<g><path style="opacity:1" fill="#9f307c" d="M 76.5,49.5 C 84.8222,50.0759 93.1556,50.7425 101.5,51.5C 100.158,54.1511 100.992,55.8177 104,56.5C 105.365,56.1557 106.532,55.4891 107.5,54.5C 109.495,56.1097 111.661,57.4431 114,58.5C 116.015,60.4731 115.848,62.1397 113.5,63.5C 116.245,68.6564 119.245,73.6564 122.5,78.5C 120.433,81.6491 119.433,85.1491 119.5,89C 120.115,91.7659 120.115,94.4326 119.5,97C 120.613,98.3943 121.947,99.561 123.5,100.5C 122.754,101.736 122.421,103.07 122.5,104.5C 127.894,103.554 129.561,105.554 127.5,110.5C 122.639,112.952 117.972,112.785 113.5,110C 110.643,104.783 108.476,99.2831 107,93.5C 101.653,90.9689 97.1535,88.1356 93.5,85C 91.8258,83.4941 90.8258,81.6607 90.5,79.5C 89.325,79.719 88.325,79.3857 87.5,78.5C 83.1136,74.438 79.1136,69.938 75.5,65C 78.633,64.089 79.633,62.2556 78.5,59.5C 80.2786,57.8071 80.7786,55.8071 80,53.5C 77.6694,55.971 75.5027,55.6377 73.5,52.5C 73.8457,51.3044 74.3457,51.3044 75,52.5C 76.0386,51.7562 76.5386,50.7562 76.5,49.5 Z"/></g>
<g><path style="opacity:1" fill="#6c3387" d="M 208.5,92.5 C 207.833,94.1667 207.167,95.8333 206.5,97.5C 205.25,97.4226 204.417,96.756 204,95.5C 203.042,99.7811 200.876,103.114 197.5,105.5C 194.833,104.167 192.833,102.167 191.5,99.5C 192.222,99.0825 192.722,98.4158 193,97.5C 192.929,90.957 193.762,84.6237 195.5,78.5C 191.886,74.0879 190.886,69.4212 192.5,64.5C 193.167,66.8333 193.833,69.1667 194.5,71.5C 196.5,68.8333 198.5,68.8333 200.5,71.5C 204.411,77.9645 206.077,84.9645 205.5,92.5C 206.5,92.5 207.5,92.5 208.5,92.5 Z"/></g>
<g><path style="opacity:1" fill="#64307b" d="M 177.5,59.5 C 179.948,58.5269 182.615,58.1936 185.5,58.5C 202.088,63.6472 209.754,74.9805 208.5,92.5C 207.5,92.5 206.5,92.5 205.5,92.5C 206.077,84.9645 204.411,77.9645 200.5,71.5C 198.5,68.8333 196.5,68.8333 194.5,71.5C 193.833,69.1667 193.167,66.8333 192.5,64.5C 190.886,69.4212 191.886,74.0879 195.5,78.5C 193.762,84.6237 192.929,90.957 193,97.5C 192.722,98.4158 192.222,99.0825 191.5,99.5C 188.931,98.6044 186.931,96.9377 185.5,94.5C 180.288,84.4924 178.122,73.8257 179,62.5C 178.768,61.2625 178.268,60.2625 177.5,59.5 Z"/></g>
<g><path style="opacity:1" fill="#ad2d6f" d="M 49.5,68.5 C 50.404,69.209 50.7373,70.209 50.5,71.5C 54.7642,73.0323 59.0975,74.3656 63.5,75.5C 63.5,76.8333 63.5,78.1667 63.5,79.5C 64.8333,79.5 66.1667,79.5 67.5,79.5C 66.7893,82.8638 67.956,85.1971 71,86.5C 71.2738,92.3011 72.2738,97.9678 74,103.5C 74.8747,106.215 76.7081,107.548 79.5,107.5C 79.5,108.833 79.5,110.167 79.5,111.5C 82.0124,111.423 84.0124,112.423 85.5,114.5C 84.0508,115.172 82.7175,115.839 81.5,116.5C 68.1667,116.5 54.8333,116.5 41.5,116.5C 42.0906,115.849 42.7573,115.182 43.5,114.5C 41.7427,111.986 40.2427,109.319 39,106.5C 38.1667,107.5 37.3333,108.5 36.5,109.5C 33.7305,107.399 31.7305,104.732 30.5,101.5C 29.5052,96.2079 29.1718,90.8746 29.5,85.5C 30.8734,85.6567 32.2068,85.49 33.5,85C 36.2782,82.6903 38.2782,79.857 39.5,76.5C 42.5924,74.6359 45.9257,73.4693 49.5,73C 47.6183,72.8019 45.9516,72.3019 44.5,71.5C 46.8477,71.4077 48.5144,70.4077 49.5,68.5 Z"/></g>
<g><path style="opacity:1" fill="#6f2a6c" d="M 151.5,113.5 C 149.718,112.28 147.718,111.614 145.5,111.5C 144.022,111.762 142.689,111.429 141.5,110.5C 134.504,104.162 129.838,96.4949 127.5,87.5C 127.231,85.5714 127.731,83.9047 129,82.5C 133.096,85.7628 136.263,89.7628 138.5,94.5C 144.45,95.8406 149.283,98.8406 153,103.5C 152.653,106.271 152.82,108.938 153.5,111.5C 155.75,111.181 157.75,111.681 159.5,113C 156.854,113.497 154.187,113.664 151.5,113.5 Z"/></g>
</svg>
