<?xml version="1.0" encoding="UTF-8"?>
<!DOCTYPE svg PUBLIC "-//W3C//DTD SVG 1.1//EN" "http://www.w3.org/Graphics/SVG/1.1/DTD/svg11.dtd">
<svg xmlns="http://www.w3.org/2000/svg" version="1.1" width="461px" height="142px" style="shape-rendering:geometricPrecision; text-rendering:geometricPrecision; image-rendering:optimizeQuality; fill-rule:evenodd; clip-rule:evenodd" xmlns:xlink="http://www.w3.org/1999/xlink">
<g><path style="opacity:1" fill="#873486" d="M 139.5,17.5 C 140.568,18.4345 141.901,18.7678 143.5,18.5C 143.413,21.5983 143.913,21.9316 145,19.5C 145.667,22.1667 146.333,22.1667 147,19.5C 147.691,21.8912 148.691,21.8912 150,19.5C 150.54,21.1346 150.04,22.4679 148.5,23.5C 149.806,26.4572 151.806,28.7906 154.5,30.5C 153.814,32.0639 153.981,33.7306 155,35.5C 157.041,34.5769 159.208,34.2436 161.5,34.5C 161.5,37.5 161.5,40.5 161.5,43.5C 162.5,43.5 163.5,43.5 164.5,43.5C 164.753,48.6685 167.087,52.6685 171.5,55.5C 172.167,54.8333 172.833,54.1667 173.5,53.5C 175.575,55.5852 175.575,57.4186 173.5,59C 174.907,62.1159 176.24,65.2826 177.5,68.5C 179.113,69.4274 180.779,70.2607 182.5,71C 181.359,71.7412 181.359,72.5745 182.5,73.5C 185.122,75.4113 187.289,77.7446 189,80.5C 189.87,79.8921 190.37,79.0588 190.5,78C 190.306,75.5145 189.972,73.0145 189.5,70.5C 192.465,65.8196 193.132,60.8196 191.5,55.5C 191.5,54.8333 191.833,54.5 192.5,54.5C 195.818,55.9577 199.151,57.291 202.5,58.5C 199.833,58.1667 197.167,57.8333 194.5,57.5C 192.138,74.4266 196.138,89.7599 206.5,103.5C 209.188,105.521 211.521,107.854 213.5,110.5C 211.23,112.975 208.563,114.975 205.5,116.5C 205.586,115.504 205.252,114.671 204.5,114C 202.275,113.439 200.275,112.439 198.5,111C 202.375,109.653 202.375,108.486 198.5,107.5C 197.333,105.833 196.167,104.167 195,102.5C 194.667,102.833 194.333,103.167 194,103.5C 193.518,96.8414 190.351,91.8414 184.5,88.5C 181.707,83.5595 178.54,78.8929 175,74.5C 174.506,72.8659 174.34,71.1992 174.5,69.5C 172.833,69.5 171.167,69.5 169.5,69.5C 169.785,67.712 169.452,66.0453 168.5,64.5C 165.754,61.1139 162.92,57.7805 160,54.5C 160.437,50.5575 158.771,48.2242 155,47.5C 153.981,43.8112 151.814,40.9778 148.5,39C 149.863,36.8707 149.529,36.3707 147.5,37.5C 146.063,34.9591 144.897,32.2924 144,29.5C 143,29.1667 142,28.8333 141,28.5C 140.229,25.8103 139.396,23.1436 138.5,20.5C 137.914,20.7093 137.414,21.0426 137,21.5C 136.5,19.6667 135.333,18.5 133.5,18C 135.473,17.5045 137.473,17.3379 139.5,17.5 Z"/></g>
<g><path style="opacity:1" fill="#782e78" d="M 205.5,116.5 C 208.563,114.975 211.23,112.975 213.5,110.5C 215.175,108.998 217.008,107.665 219,106.5C 219.941,104.273 221.108,102.273 222.5,100.5C 218.312,111.678 210.312,118.678 198.5,121.5C 183.824,120.988 168.824,120.988 153.5,121.5C 157.768,121.131 161.768,120.131 165.5,118.5C 169.582,118.656 173.582,118.156 177.5,117C 176.376,116.751 175.376,116.251 174.5,115.5C 174.5,113.833 174.5,112.167 174.5,110.5C 173.335,109.416 172.002,108.583 170.5,108C 170.616,106.732 170.949,105.398 171.5,104C 169.354,102.398 167.02,101.232 164.5,100.5C 164.5,99.5 164.5,98.5 164.5,97.5C 163.5,97.5 162.5,97.5 161.5,97.5C 161.132,93.8778 161.132,90.3778 161.5,87C 158.938,87.2384 156.604,86.2384 154.5,84C 155.299,81.7724 154.299,80.4391 151.5,80C 152.097,78.3744 152.097,76.541 151.5,74.5C 150.284,75.0016 149.117,75.3349 148,75.5C 147.138,73.913 146.471,72.2464 146,70.5C 145.333,69.1667 144.667,69.1667 144,70.5C 143.28,68.8876 143.446,67.3876 144.5,66C 143.062,64.7592 141.562,64.2592 140,64.5C 139.798,62.7444 139.298,61.0777 138.5,59.5C 136.902,60.4847 135.235,60.6514 133.5,60C 134.448,59.5172 135.448,59.3505 136.5,59.5C 136.216,57.1229 136.216,54.9562 136.5,53C 135.24,51.887 134.073,51.7203 133,52.5C 132.544,51.2559 133.044,50.4226 134.5,50C 133.552,49.5172 132.552,49.3505 131.5,49.5C 131.034,47.7988 131.034,46.2988 131.5,45C 130.285,42.9045 129.451,43.0712 129,45.5C 128,44.8333 127,44.1667 126,43.5C 125.695,41.4432 125.695,39.4432 126,37.5C 125.259,36.3595 124.425,36.3595 123.5,37.5C 122.098,37.1345 121.098,36.3012 120.5,35C 120.913,33.2041 120.913,31.5374 120.5,30C 118.153,29.6664 115.819,29.833 113.5,30.5C 113.5,29.5 113.5,28.5 113.5,27.5C 112.5,27.5 111.5,27.5 110.5,27.5C 114.02,24.8156 117.853,22.4823 122,20.5C 125.332,22.4429 125.166,23.6095 121.5,24C 122.227,25.3988 122.727,26.8988 123,28.5C 123.75,29.1258 124.584,29.6258 125.5,30C 124.549,30.7175 124.383,31.5509 125,32.5C 129.086,35.3757 132.753,38.709 136,42.5C 136.266,46.1387 137.766,49.1387 140.5,51.5C 141.466,53.396 141.799,55.396 141.5,57.5C 145.873,57.9459 147.206,59.7792 145.5,63C 148.62,65.8686 151.953,68.5352 155.5,71C 154.511,73.2303 155.178,75.0636 157.5,76.5C 157.291,77.086 156.957,77.586 156.5,78C 157.624,78.2492 158.624,78.7492 159.5,79.5C 160.089,82.2762 161.422,84.6096 163.5,86.5C 166.173,87.5014 168.507,89.0014 170.5,91C 170.167,91.3333 169.833,91.6667 169.5,92C 170.191,93.0674 170.691,94.2341 171,95.5C 172.011,94.6634 173.178,94.33 174.5,94.5C 174.561,98.8464 175.727,102.846 178,106.5C 179.645,108.662 181.812,109.995 184.5,110.5C 185.76,112.353 185.76,114.186 184.5,116C 186.5,116.333 188.5,116.667 190.5,117C 189.5,117.333 188.5,117.667 187.5,118C 193.664,118.898 199.664,118.398 205.5,116.5 Z"/></g>
<g><path style="opacity:1" fill="#8a358a" d="M 139.5,17.5 C 165.668,18.3639 183.001,31.0306 191.5,55.5C 193.132,60.8196 192.465,65.8196 189.5,70.5C 189.972,73.0145 190.306,75.5145 190.5,78C 190.37,79.0588 189.87,79.8921 189,80.5C 187.289,77.7446 185.122,75.4113 182.5,73.5C 181.359,72.5745 181.359,71.7412 182.5,71C 180.779,70.2607 179.113,69.4274 177.5,68.5C 176.24,65.2826 174.907,62.1159 173.5,59C 175.575,57.4186 175.575,55.5852 173.5,53.5C 172.833,54.1667 172.167,54.8333 171.5,55.5C 167.087,52.6685 164.753,48.6685 164.5,43.5C 163.5,43.5 162.5,43.5 161.5,43.5C 161.5,40.5 161.5,37.5 161.5,34.5C 159.208,34.2436 157.041,34.5769 155,35.5C 153.981,33.7306 153.814,32.0639 154.5,30.5C 151.806,28.7906 149.806,26.4572 148.5,23.5C 150.04,22.4679 150.54,21.1346 150,19.5C 148.691,21.8912 147.691,21.8912 147,19.5C 146.333,22.1667 145.667,22.1667 145,19.5C 143.913,21.9316 143.413,21.5983 143.5,18.5C 141.901,18.7678 140.568,18.4345 139.5,17.5 Z"/></g>
<g><path style="opacity:1" fill="#9c2e7a" d="M 88.5,38.5 C 112.377,36.5486 128.21,46.882 136,69.5C 133.909,90.9889 142.076,106.989 160.5,117.5C 160.611,118.117 160.944,118.617 161.5,119C 145.801,119.862 130.134,119.529 114.5,118C 114.915,115.144 114.249,112.31 112.5,109.5C 111.833,109.833 111.167,110.167 110.5,110.5C 109.684,108.713 108.684,107.046 107.5,105.5C 107.709,104.914 108.043,104.414 108.5,104C 106.668,103.252 105.001,102.252 103.5,101C 104.641,100.259 104.641,99.4255 103.5,98.5C 98.6225,93.6977 94.6225,89.0311 91.5,84.5C 90.448,84.6495 89.448,84.4828 88.5,84C 88.8333,83.6667 89.1667,83.3333 89.5,83C 87.7721,81.2745 85.7721,79.9411 83.5,79C 83.8333,78.6667 84.1667,78.3333 84.5,78C 83,75.8333 81.1667,74 79,72.5C 78.5172,71.552 78.3505,70.552 78.5,69.5C 75.1116,69.1261 73.2782,67.1261 73,63.5C 72.3333,62.1667 71.6667,62.1667 71,63.5C 70,61.8333 69,60.1667 68,58.5C 67.6667,58.8333 67.3333,59.1667 67,59.5C 66.6258,58.5838 66.1258,57.7504 65.5,57C 64.2624,57.0773 63.2624,56.9106 62.5,56.5C 66.9298,50.2752 72.5965,45.4418 79.5,42C 78.9056,41.5357 78.2389,41.369 77.5,41.5C 80.7994,39.5165 84.4661,38.5165 88.5,38.5 Z"/></g>
<g><path style="opacity:1" fill="#a0307c" d="M 85.5,45.5 C 92.303,45.6677 99.4697,46.3344 107,47.5C 107.414,47.0426 107.914,46.7093 108.5,46.5C 109.123,48.9661 109.957,51.2994 111,53.5C 112.356,52.6198 113.856,52.2865 115.5,52.5C 115.202,49.6644 115.869,49.1644 117.5,51C 117.043,51.414 116.709,51.914 116.5,52.5C 118.407,53.3699 120.24,54.3699 122,55.5C 122.772,55.3552 123.439,55.0219 124,54.5C 124.333,56.8333 124.667,59.1667 125,61.5C 126.131,60.3961 126.965,60.7295 127.5,62.5C 126.726,63.7112 125.893,63.7112 125,62.5C 124.675,64.5527 125.009,66.5527 126,68.5C 128.442,69.8762 129.275,71.7096 128.5,74C 130.004,75.4907 130.837,77.324 131,79.5C 131.333,77.8333 131.667,76.1667 132,74.5C 130.644,79.643 130.144,84.643 130.5,89.5C 132.533,91.4515 132.866,93.6182 131.5,96C 133.509,98.9947 134.009,102.161 133,105.5C 135.081,106.215 137.247,107.215 139.5,108.5C 140.167,109.833 140.833,111.167 141.5,112.5C 142.72,113.711 143.887,113.711 145,112.5C 145.72,114.112 145.554,115.612 144.5,117C 148.421,117.395 152.088,117.228 155.5,116.5C 156.308,116.808 156.975,117.308 157.5,118C 147.122,118.815 138.789,118.649 132.5,117.5C 132.649,116.448 132.483,115.448 132,114.5C 131.577,115.956 130.744,116.456 129.5,116C 128.167,115.333 128.167,114.667 129.5,114C 127.041,113.276 126.041,111.943 126.5,110C 125.833,109.667 125.167,109.333 124.5,109C 125.641,108.259 125.641,107.425 124.5,106.5C 120.655,104.657 118.321,101.657 117.5,97.5C 117.818,96.3527 118.484,95.5194 119.5,95C 118.874,94.2496 118.374,93.4162 118,92.5C 115.415,93.8846 113.415,93.2179 112,90.5C 111.667,90.8333 111.333,91.1667 111,91.5C 110.604,89.0398 109.437,87.0398 107.5,85.5C 107.709,84.914 108.043,84.414 108.5,84C 106.132,83.1436 103.798,82.3103 101.5,81.5C 101.286,79.8561 101.62,78.3561 102.5,77C 101.551,76.3828 100.718,76.5494 100,77.5C 99.7811,76.062 99.2811,74.7287 98.5,73.5C 94.7265,72.6176 91.7265,70.1176 89.5,66C 89.6448,65.228 89.9781,64.5613 90.5,64C 85.5367,62.9081 83.87,60.0748 85.5,55.5C 83.5,54.8333 81.5,54.1667 79.5,53.5C 80.325,52.6143 81.325,52.281 82.5,52.5C 82.6427,50.7376 82.3094,49.0709 81.5,47.5C 82.8595,47.6133 84.1928,46.9466 85.5,45.5 Z"/></g>
<g><path style="opacity:0.069" fill="#da99ec" d="M 297.5,79.5 C 303.077,84.6886 308.577,84.6886 314,79.5C 318.023,83.111 322.356,83.4443 327,80.5C 329.561,82.3438 332.394,82.8438 335.5,82C 337.007,80.5267 337.674,78.6934 337.5,76.5C 337.032,71.3238 335.865,66.3238 334,61.5C 326.82,56.8179 320.487,57.8179 315,64.5C 313.259,67.3093 312.092,70.3093 311.5,73.5C 309.833,73.5 308.167,73.5 306.5,73.5C 306.5,72.1667 306.5,70.8333 306.5,69.5C 312.263,69.2173 313.93,66.384 311.5,61C 309.655,59.872 307.655,59.372 305.5,59.5C 305.662,57.4727 305.495,55.4727 305,53.5C 299.752,50.3662 297.085,52.0329 297,58.5C 295.667,59.8333 294.333,61.1667 293,62.5C 292.283,61.9558 291.783,61.2891 291.5,60.5C 293.017,60.4894 294.184,59.8228 295,58.5C 295.986,56.2222 296.82,53.8889 297.5,51.5C 299.996,49.0466 302.662,48.8799 305.5,51C 306.227,53.124 306.894,55.2906 307.5,57.5C 310.667,58.0007 313.001,59.6674 314.5,62.5C 321.419,55.0744 328.585,54.7411 336,61.5C 338.109,68.0333 338.776,74.7 338,81.5C 334.66,85.0814 330.994,85.4147 327,82.5C 318.373,82.1294 309.873,82.6294 301.5,84C 299.249,83.2525 297.916,81.7525 297.5,79.5 Z"/></g>
<g><path style="opacity:0.403" fill="#dc9ded" d="M 439.5,69.5 C 443.172,63.5589 441.505,60.2255 434.5,59.5C 435.348,53.0669 432.848,50.7336 427,52.5C 426.105,54.8045 425.271,57.1378 424.5,59.5C 422.775,61.0916 421.775,60.7583 421.5,58.5C 422.496,58.5858 423.329,58.2524 424,57.5C 424.029,50.4497 427.196,48.2831 433.5,51C 435.074,52.8259 435.907,54.9925 436,57.5C 441.892,58.9466 443.892,62.6132 442,68.5C 441.329,69.2524 440.496,69.5858 439.5,69.5 Z"/></g>
<g><path style="opacity:0.569" fill="#d695e8" d="M 248.5,47.5 C 260.908,44.543 269.241,49.2097 273.5,61.5C 278.114,56.9036 283.447,55.7369 289.5,58C 290.756,58.4169 291.423,59.2502 291.5,60.5C 284.102,56.8817 277.769,58.215 272.5,64.5C 269.395,51.9457 261.395,46.279 248.5,47.5 Z"/></g>
<g><path style="opacity:1" fill="#8f2b70" d="M 77.5,41.5 C 78.2389,41.369 78.9056,41.5357 79.5,42C 72.5965,45.4418 66.9298,50.2752 62.5,56.5C 63.2624,56.9106 64.2624,57.0773 65.5,57C 66.1258,57.7504 66.6258,58.5838 67,59.5C 67.3333,59.1667 67.6667,58.8333 68,58.5C 69,60.1667 70,61.8333 71,63.5C 71.6667,62.1667 72.3333,62.1667 73,63.5C 73.2782,67.1261 75.1116,69.1261 78.5,69.5C 78.3505,70.552 78.5172,71.552 79,72.5C 81.1667,74 83,75.8333 84.5,78C 84.1667,78.3333 83.8333,78.6667 83.5,79C 85.7721,79.9411 87.7721,81.2745 89.5,83C 89.1667,83.3333 88.8333,83.6667 88.5,84C 89.448,84.4828 90.448,84.6495 91.5,84.5C 94.6225,89.0311 98.6225,93.6977 103.5,98.5C 104.641,99.4255 104.641,100.259 103.5,101C 105.001,102.252 106.668,103.252 108.5,104C 108.043,104.414 107.709,104.914 107.5,105.5C 108.684,107.046 109.684,108.713 110.5,110.5C 111.167,110.167 111.833,109.833 112.5,109.5C 114.249,112.31 114.915,115.144 114.5,118C 130.134,119.529 145.801,119.862 161.5,119C 160.944,118.617 160.611,118.117 160.5,117.5C 162.117,118.038 163.784,118.371 165.5,118.5C 161.768,120.131 157.768,121.131 153.5,121.5C 135.833,121.5 118.167,121.5 100.5,121.5C 91.0559,119.723 84.2226,114.389 80,105.5C 78.8652,98.3474 77.1985,91.3474 75,84.5C 69.992,77.2482 63.1586,72.9149 54.5,71.5C 55.3094,69.9291 55.6427,68.2624 55.5,66.5C 59.2783,55.054 66.6116,46.7207 77.5,41.5 Z"/></g>
<g><path style="opacity:0.392" fill="#dd9fee" d="M 421.5,58.5 C 414.348,53.9286 408.014,54.9286 402.5,61.5C 396.337,55.5177 390.004,55.1844 383.5,60.5C 382.675,56.8776 382.175,53.211 382,49.5C 378.714,45.5149 375.381,45.5149 372,49.5C 370.861,55.4361 370.195,61.4361 370,67.5C 368.519,66.5291 367.685,65.1958 367.5,63.5C 369.047,58.0909 370.547,52.4243 372,46.5C 381.671,43.4905 386.005,47.1572 385,57.5C 391.094,54.4365 396.761,55.1031 402,59.5C 406.311,55.1754 411.477,53.6754 417.5,55C 419.544,55.4983 420.878,56.665 421.5,58.5 Z"/></g>
<g><path style="opacity:1" fill="#80317d" d="M 192.5,54.5 C 191.833,54.5 191.5,54.8333 191.5,55.5C 183.001,31.0306 165.668,18.3639 139.5,17.5C 137.473,17.3379 135.473,17.5045 133.5,18C 135.333,18.5 136.5,19.6667 137,21.5C 137.414,21.0426 137.914,20.7093 138.5,20.5C 139.396,23.1436 140.229,25.8103 141,28.5C 142,28.8333 143,29.1667 144,29.5C 144.897,32.2924 146.063,34.9591 147.5,37.5C 149.529,36.3707 149.863,36.8707 148.5,39C 151.814,40.9778 153.981,43.8112 155,47.5C 158.771,48.2242 160.437,50.5575 160,54.5C 162.92,57.7805 165.754,61.1139 168.5,64.5C 169.452,66.0453 169.785,67.712 169.5,69.5C 171.167,69.5 172.833,69.5 174.5,69.5C 174.34,71.1992 174.506,72.8659 175,74.5C 178.54,78.8929 181.707,83.5595 184.5,88.5C 190.351,91.8414 193.518,96.8414 194,103.5C 194.333,103.167 194.667,102.833 195,102.5C 196.167,104.167 197.333,105.833 198.5,107.5C 202.375,108.486 202.375,109.653 198.5,111C 200.275,112.439 202.275,113.439 204.5,114C 205.252,114.671 205.586,115.504 205.5,116.5C 199.664,118.398 193.664,118.898 187.5,118C 188.5,117.667 189.5,117.333 190.5,117C 188.5,116.667 186.5,116.333 184.5,116C 185.76,114.186 185.76,112.353 184.5,110.5C 181.812,109.995 179.645,108.662 178,106.5C 175.727,102.846 174.561,98.8464 174.5,94.5C 173.178,94.33 172.011,94.6634 171,95.5C 170.691,94.2341 170.191,93.0674 169.5,92C 169.833,91.6667 170.167,91.3333 170.5,91C 168.507,89.0014 166.173,87.5014 163.5,86.5C 161.422,84.6096 160.089,82.2762 159.5,79.5C 158.624,78.7492 157.624,78.2492 156.5,78C 156.957,77.586 157.291,77.086 157.5,76.5C 155.178,75.0636 154.511,73.2303 155.5,71C 151.953,68.5352 148.62,65.8686 145.5,63C 147.206,59.7792 145.873,57.9459 141.5,57.5C 141.799,55.396 141.466,53.396 140.5,51.5C 137.766,49.1387 136.266,46.1387 136,42.5C 132.753,38.709 129.086,35.3757 125,32.5C 124.383,31.5509 124.549,30.7175 125.5,30C 124.584,29.6258 123.75,29.1258 123,28.5C 122.727,26.8988 122.227,25.3988 121.5,24C 125.166,23.6095 125.332,22.4429 122,20.5C 117.853,22.4823 114.02,24.8156 110.5,27.5C 107.421,29.4668 104.588,31.8001 102,34.5C 101.601,34.2716 101.435,33.9382 101.5,33.5C 116.139,17.68 134.139,12.18 155.5,17C 174.052,23.3855 186.386,35.8855 192.5,54.5 Z"/></g>
<g><path style="opacity:1" fill="#732d71" d="M 110.5,27.5 C 111.5,27.5 112.5,27.5 113.5,27.5C 113.5,28.5 113.5,29.5 113.5,30.5C 115.819,29.833 118.153,29.6664 120.5,30C 120.913,31.5374 120.913,33.2041 120.5,35C 121.098,36.3012 122.098,37.1345 123.5,37.5C 124.425,36.3595 125.259,36.3595 126,37.5C 125.695,39.4432 125.695,41.4432 126,43.5C 127,44.1667 128,44.8333 129,45.5C 129.451,43.0712 130.285,42.9045 131.5,45C 131.034,46.2988 131.034,47.7988 131.5,49.5C 132.552,49.3505 133.552,49.5172 134.5,50C 133.044,50.4226 132.544,51.2559 133,52.5C 134.073,51.7203 135.24,51.887 136.5,53C 136.216,54.9562 136.216,57.1229 136.5,59.5C 135.448,59.3505 134.448,59.5172 133.5,60C 135.235,60.6514 136.902,60.4847 138.5,59.5C 139.298,61.0777 139.798,62.7444 140,64.5C 141.562,64.2592 143.062,64.7592 144.5,66C 143.446,67.3876 143.28,68.8876 144,70.5C 144.667,69.1667 145.333,69.1667 146,70.5C 146.471,72.2464 147.138,73.913 148,75.5C 149.117,75.3349 150.284,75.0016 151.5,74.5C 152.097,76.541 152.097,78.3744 151.5,80C 154.299,80.4391 155.299,81.7724 154.5,84C 156.604,86.2384 158.938,87.2384 161.5,87C 161.132,90.3778 161.132,93.8778 161.5,97.5C 162.5,97.5 163.5,97.5 164.5,97.5C 164.5,98.5 164.5,99.5 164.5,100.5C 167.02,101.232 169.354,102.398 171.5,104C 170.949,105.398 170.616,106.732 170.5,108C 172.002,108.583 173.335,109.416 174.5,110.5C 174.5,112.167 174.5,113.833 174.5,115.5C 175.376,116.251 176.376,116.751 177.5,117C 173.582,118.156 169.582,118.656 165.5,118.5C 163.784,118.371 162.117,118.038 160.5,117.5C 142.076,106.989 133.909,90.9889 136,69.5C 128.21,46.882 112.377,36.5486 88.5,38.5C 90.631,37.6862 92.9644,37.1862 95.5,37C 97.4048,35.5787 99.4048,34.412 101.5,33.5C 101.435,33.9382 101.601,34.2716 102,34.5C 104.588,31.8001 107.421,29.4668 110.5,27.5 Z"/></g>
<g><path style="opacity:0.024" fill="#db9aec" d="M 367.5,63.5 C 363.635,58.9784 359.635,54.4784 355.5,50C 352.044,48.877 349.21,49.7104 347,52.5C 346.101,62.8934 346.434,73.2267 348,83.5C 349.903,86.9547 352.237,87.288 355,84.5C 356.161,79.5836 356.827,74.5836 357,69.5C 357.717,70.0442 358.217,70.7109 358.5,71.5C 357.817,76.0618 356.983,80.7284 356,85.5C 353.075,88.0594 350.075,88.0594 347,85.5C 344.34,74.2423 344.007,62.909 346,51.5C 346.308,50.6919 346.808,50.0253 347.5,49.5C 350.438,48.4252 353.438,48.2585 356.5,49C 361.521,52.9066 365.187,57.7399 367.5,63.5 Z"/></g>
<g><path style="opacity:1" fill="#65307e" d="M 194.5,57.5 C 200.257,58.9276 205.59,61.4276 210.5,65C 208.842,65.7253 208.342,66.892 209,68.5C 210.147,67.5419 211.147,67.8753 212,69.5C 212.893,72.9162 212.393,76.0828 210.5,79C 212.904,79.5079 213.571,80.6745 212.5,82.5C 211.808,81.9747 211.308,81.3081 211,80.5C 210.833,81.1667 210.667,81.8333 210.5,82.5C 211.544,84.7148 212.21,87.0481 212.5,89.5C 211.946,94.1107 211.946,98.6107 212.5,103C 212.333,103.833 212.167,104.667 212,105.5C 210.416,104.139 208.582,103.472 206.5,103.5C 196.138,89.7599 192.138,74.4266 194.5,57.5 Z"/></g>
<g><path style="opacity:1" fill="#6f3086" d="M 194.5,57.5 C 197.167,57.8333 199.833,58.1667 202.5,58.5C 222,66.3158 228.667,80.3158 222.5,100.5C 221.108,102.273 219.941,104.273 219,106.5C 217.008,107.665 215.175,108.998 213.5,110.5C 211.521,107.854 209.188,105.521 206.5,103.5C 208.582,103.472 210.416,104.139 212,105.5C 212.167,104.667 212.333,103.833 212.5,103C 211.946,98.6107 211.946,94.1107 212.5,89.5C 212.21,87.0481 211.544,84.7148 210.5,82.5C 210.667,81.8333 210.833,81.1667 211,80.5C 211.308,81.3081 211.808,81.9747 212.5,82.5C 213.571,80.6745 212.904,79.5079 210.5,79C 212.393,76.0828 212.893,72.9162 212,69.5C 211.147,67.8753 210.147,67.5419 209,68.5C 208.342,66.892 208.842,65.7253 210.5,65C 205.59,61.4276 200.257,58.9276 194.5,57.5 Z"/></g>
<g><path style="opacity:0.831" fill="#c665e2" d="M 248.5,47.5 C 261.395,46.279 269.395,51.9457 272.5,64.5C 277.769,58.215 284.102,56.8817 291.5,60.5C 291.783,61.2891 292.283,61.9558 293,62.5C 294.333,61.1667 295.667,59.8333 297,58.5C 297.085,52.0329 299.752,50.3662 305,53.5C 305.495,55.4727 305.662,57.4727 305.5,59.5C 307.655,59.372 309.655,59.872 311.5,61C 313.93,66.384 312.263,69.2173 306.5,69.5C 306.5,70.8333 306.5,72.1667 306.5,73.5C 308.167,73.5 309.833,73.5 311.5,73.5C 312.092,70.3093 313.259,67.3093 315,64.5C 320.487,57.8179 326.82,56.8179 334,61.5C 335.865,66.3238 337.032,71.3238 337.5,76.5C 337.674,78.6934 337.007,80.5267 335.5,82C 332.394,82.8438 329.561,82.3438 327,80.5C 322.356,83.4443 318.023,83.111 314,79.5C 308.577,84.6886 303.077,84.6886 297.5,79.5C 296.861,75.4728 296.028,71.4728 295,67.5C 294.408,70.6944 294.574,73.8611 295.5,77C 295.073,82.0893 292.406,83.756 287.5,82C 286.892,81.1301 286.059,80.6301 285,80.5C 278.533,84.0416 273.366,82.7082 269.5,76.5C 264.058,81.3877 257.725,84.3877 250.5,85.5C 247.07,85.8935 243.904,85.2268 241,83.5C 241.304,73.1929 241.471,62.8596 241.5,52.5C 242.187,48.6478 244.521,46.9811 248.5,47.5 Z M 323.5,61.5 C 326.482,61.1044 329.149,61.7711 331.5,63.5C 333.56,68.5975 334.227,73.7642 333.5,79C 331.742,78.6557 329.909,78.1557 328,77.5C 323.942,78.6978 319.942,78.6978 316,77.5C 313.882,70.0662 316.382,64.7328 323.5,61.5 Z M 310.5,66.5 C 302.11,66.1141 300.443,69.2807 305.5,76C 306.672,76.3534 307.838,76.1868 309,75.5C 310.28,75.6135 311.113,76.2801 311.5,77.5C 307.457,81.5486 303.624,81.2153 300,76.5C 299.115,73.0477 298.282,69.7144 297.5,66.5C 295.991,64.3197 296.491,62.653 299,61.5C 299.681,59.1053 300.515,56.772 301.5,54.5C 301.288,60.1195 303.954,62.9528 309.5,63C 310.337,64.0113 310.67,65.1779 310.5,66.5 Z M 252.5,50.5 C 266.5,52.5129 271.333,60.1796 267,73.5C 261.813,78.5101 255.647,81.5101 248.5,82.5C 245.739,83.0853 244.073,82.0853 243.5,79.5C 244.274,71.1948 244.774,62.8615 245,54.5C 245.308,53.6919 245.808,53.0253 246.5,52.5C 248.657,51.9495 250.657,51.2829 252.5,50.5 Z M 256.5,69.5 C 255.504,69.5858 254.671,69.2524 254,68.5C 253.503,65.854 253.336,63.1873 253.5,60.5C 257.976,60.8222 259.476,63.1556 258,67.5C 257.283,68.0442 256.783,68.7109 256.5,69.5 Z M 290.5,63.5 C 290.979,67.8544 291.646,72.1877 292.5,76.5C 292.392,77.4419 292.059,78.2753 291.5,79C 285.782,78.0553 279.948,77.5553 274,77.5C 271.68,68.4924 275.18,63.159 284.5,61.5C 286.693,61.7186 288.693,62.3852 290.5,63.5 Z"/></g>
<g><path style="opacity:0.467" fill="#dc9dec" d="M 323.5,59.5 C 328.023,59.1795 331.523,60.8462 334,64.5C 335.07,69.4998 335.737,74.4998 336,79.5C 332.983,81.9454 330.149,81.6121 327.5,78.5C 314.503,82.5427 310.67,78.2093 316,65.5C 318.114,62.8792 320.614,60.8792 323.5,59.5 Z M 323.5,61.5 C 316.382,64.7328 313.882,70.0662 316,77.5C 319.942,78.6978 323.942,78.6978 328,77.5C 329.909,78.1557 331.742,78.6557 333.5,79C 334.227,73.7642 333.56,68.5975 331.5,63.5C 329.149,61.7711 326.482,61.1044 323.5,61.5 Z"/></g>
<g><path style="opacity:0.377" fill="#a46ab5" d="M 249.5,49.5 C 250.209,50.404 251.209,50.7373 252.5,50.5C 250.657,51.2829 248.657,51.9495 246.5,52.5C 245.808,53.0253 245.308,53.6919 245,54.5C 244.774,62.8615 244.274,71.1948 243.5,79.5C 244.073,82.0853 245.739,83.0853 248.5,82.5C 247.833,83.1667 247.167,83.8333 246.5,84.5C 241.473,83.5425 240.307,80.8758 243,76.5C 243.333,68.5 243.667,60.5 244,52.5C 245.488,50.84 247.321,49.84 249.5,49.5 Z"/></g>
<g><path style="opacity:0.341" fill="#da97eb" d="M 324.5,64.5 C 326.484,64.484 327.484,65.484 327.5,67.5C 327.286,72.8928 324.619,75.0595 319.5,74C 318.465,72.4931 318.632,70.9931 320,69.5C 321.707,67.9625 323.207,66.2959 324.5,64.5 Z"/></g>
<g><path style="opacity:1" fill="#c968e5" d="M 324.5,66.5 C 326.073,69.7092 325.073,72.0425 321.5,73.5C 321.167,73.1667 320.833,72.8333 320.5,72.5C 321.467,70.2099 322.8,68.2099 324.5,66.5 Z"/></g>
<g><path style="opacity:0.298" fill="#db99eb" d="M 310.5,66.5 C 310.67,65.1779 310.337,64.0113 309.5,63C 303.954,62.9528 301.288,60.1195 301.5,54.5C 300.515,56.772 299.681,59.1053 299,61.5C 296.491,62.653 295.991,64.3197 297.5,66.5C 295.748,66.5824 294.748,65.7491 294.5,64C 297.249,60.7656 299.249,57.0989 300.5,53C 301.996,52.4926 303.163,52.9926 304,54.5C 304.495,56.4727 304.662,58.4727 304.5,60.5C 306.655,60.372 308.655,60.872 310.5,62C 311.801,63.6155 311.801,65.1155 310.5,66.5 Z"/></g>
<g><path style="opacity:0.557" fill="#d193e0" d="M 249.5,49.5 C 266.13,49.295 272.63,57.295 269,73.5C 263.353,80.7395 255.853,84.4061 246.5,84.5C 247.167,83.8333 247.833,83.1667 248.5,82.5C 255.647,81.5101 261.813,78.5101 267,73.5C 271.333,60.1796 266.5,52.5129 252.5,50.5C 251.209,50.7373 250.209,50.404 249.5,49.5 Z"/></g>
<g><path style="opacity:0.104" fill="#bb7ecd" d="M 249.5,55.5 C 261.405,54.9687 265.239,60.302 261,71.5C 258.02,73.1337 255.02,74.8004 252,76.5C 251.333,75.8333 250.667,75.1667 250,74.5C 249.786,69.1146 249.286,63.7813 248.5,58.5C 249.127,57.5832 249.461,56.5832 249.5,55.5 Z M 256.5,69.5 C 256.783,68.7109 257.283,68.0442 258,67.5C 259.476,63.1556 257.976,60.8222 253.5,60.5C 253.336,63.1873 253.503,65.854 254,68.5C 254.671,69.2524 255.504,69.5858 256.5,69.5 Z"/></g>
<g><path style="opacity:0.843" fill="#bb5ad8" d="M 250.5,56.5 C 259.443,56.9127 262.609,61.246 260,69.5C 257.502,71.417 254.835,73.0836 252,74.5C 250.696,68.5771 250.196,62.5771 250.5,56.5 Z M 256.5,69.5 C 256.783,68.7109 257.283,68.0442 258,67.5C 259.476,63.1556 257.976,60.8222 253.5,60.5C 253.336,63.1873 253.503,65.854 254,68.5C 254.671,69.2524 255.504,69.5858 256.5,69.5 Z"/></g>
<g><path style="opacity:0.393" fill="#b77cca" d="M 256.5,69.5 C 255.713,71.1042 254.38,71.7709 252.5,71.5C 252.5,67.1667 252.5,62.8333 252.5,58.5C 257.697,58.8574 260.197,61.524 260,66.5C 259.578,68.4257 258.411,69.4257 256.5,69.5 Z M 256.5,69.5 C 256.783,68.7109 257.283,68.0442 258,67.5C 259.476,63.1556 257.976,60.8222 253.5,60.5C 253.336,63.1873 253.503,65.854 254,68.5C 254.671,69.2524 255.504,69.5858 256.5,69.5 Z"/></g>
<g><path style="opacity:0.137" fill="#db9aeb" d="M 297.5,66.5 C 298.282,69.7144 299.115,73.0477 300,76.5C 303.624,81.2153 307.457,81.5486 311.5,77.5C 311.113,76.2801 310.28,75.6135 309,75.5C 307.838,76.1868 306.672,76.3534 305.5,76C 300.443,69.2807 302.11,66.1141 310.5,66.5C 309.01,68.2798 307.01,68.9465 304.5,68.5C 303.769,73.7538 306.102,75.9205 311.5,75C 312.935,77.2672 312.602,79.2672 310.5,81C 300.219,81.8758 295.886,77.0425 297.5,66.5 Z"/></g>
<g><path style="opacity:0.604" fill="#dc9dec" d="M 290.5,63.5 C 293.205,68.8347 293.871,74.5013 292.5,80.5C 291.707,80.9312 290.873,81.2645 290,81.5C 288.374,80.7113 286.874,79.7113 285.5,78.5C 274.817,83.3073 270.317,79.9739 272,68.5C 273.793,65.7047 275.96,63.2047 278.5,61C 283.287,58.517 287.287,59.3503 290.5,63.5 Z M 290.5,63.5 C 288.693,62.3852 286.693,61.7186 284.5,61.5C 275.18,63.159 271.68,68.4924 274,77.5C 279.948,77.5553 285.782,78.0553 291.5,79C 292.059,78.2753 292.392,77.4419 292.5,76.5C 291.646,72.1877 290.979,67.8544 290.5,63.5 Z"/></g>
<g><path style="opacity:0.537" fill="#db9aeb" d="M 280.5,65.5 C 282.167,65.5 283.833,65.5 285.5,65.5C 286.274,71.6391 283.608,74.6391 277.5,74.5C 277.129,70.9966 278.129,67.9966 280.5,65.5 Z"/></g>
<g><path style="opacity:1" fill="#ca6ae5" d="M 281.5,66.5 C 284.201,69.3616 283.534,71.6949 279.5,73.5C 278.633,70.8565 279.3,68.5232 281.5,66.5 Z"/></g>
<g><path style="opacity:0.239" fill="#dd9fed" d="M 439.5,69.5 C 438.909,70.1515 438.243,70.8182 437.5,71.5C 445.486,73.9439 446.486,78.1106 440.5,84C 436.833,84.6667 433.167,84.6667 429.5,84C 427.667,82.8333 426.167,81.3333 425,79.5C 420.918,85.976 415.085,88.1427 407.5,86C 405.359,84.6924 403.359,83.1924 401.5,81.5C 399.367,84.0928 396.533,85.4261 393,85.5C 389.52,84.9637 386.187,83.9637 383,82.5C 381.112,84.8609 378.612,86.1942 375.5,86.5C 368.308,85.09 363.308,81.09 360.5,74.5C 364.05,78.2141 368.05,81.3807 372.5,84C 377.166,85.4974 380.5,83.9974 382.5,79.5C 388.243,84.238 394.076,84.5713 400,80.5C 400.687,78.4325 400.52,76.4325 399.5,74.5C 401.348,71.5215 403.348,71.1882 405.5,73.5C 401.769,80.9891 404.269,84.9891 413,85.5C 421.283,84.8911 424.616,80.5577 423,72.5C 421.5,71 420,69.5 418.5,68C 420.11,66.5053 421.776,66.3387 423.5,67.5C 424.314,69.7662 424.814,72.0995 425,74.5C 426.227,70.4087 425.394,66.9087 422.5,64C 425.729,61.3274 427.562,57.8274 428,53.5C 429.333,52.1667 430.667,52.1667 432,53.5C 432.497,55.8098 432.663,58.1432 432.5,60.5C 438.219,59.9743 440.219,62.3076 438.5,67.5C 436.556,68.1892 434.556,68.6892 432.5,69C 433.406,70.6995 433.739,72.5328 433.5,74.5C 436.908,73.828 439.575,74.828 441.5,77.5C 441.081,78.6721 440.415,79.6721 439.5,80.5C 433.369,83.0168 428.869,81.3502 426,75.5C 426.254,79.435 428.42,81.935 432.5,83C 439.169,84.6075 442.336,82.1075 442,75.5C 439.865,73.7215 437.365,73.0548 434.5,73.5C 434.5,72.1667 434.5,70.8333 434.5,69.5C 436.167,69.5 437.833,69.5 439.5,69.5 Z M 401.5,73.5 C 403.646,73.6964 403.812,74.6964 402,76.5C 401.517,75.552 401.351,74.552 401.5,73.5 Z M 428.5,55.5 C 429.496,55.4142 430.329,55.7476 431,56.5C 431.251,58.433 431.751,60.2663 432.5,62C 434.433,62.2511 436.266,62.7511 438,63.5C 438.483,64.448 438.649,65.448 438.5,66.5C 431.516,65.6308 429.35,68.2974 432,74.5C 433.972,76.4321 436.138,76.9321 438.5,76C 439.451,76.7175 439.617,77.5509 439,78.5C 435.462,81.0011 432.129,80.6677 429,77.5C 427.964,74.2473 427.297,70.914 427,67.5C 426.535,66.0692 425.701,64.9025 424.5,64C 427.844,62.106 429.178,59.2727 428.5,55.5 Z"/></g>
<g><path style="opacity:0.402" fill="#d89ee9" d="M 297.5,79.5 C 294.244,84.7298 289.91,85.7298 284.5,82.5C 278.333,84.7574 273.166,83.4241 269,78.5C 264.221,83.4727 258.388,86.1394 251.5,86.5C 250.833,86.5 250.5,86.1667 250.5,85.5C 257.725,84.3877 264.058,81.3877 269.5,76.5C 273.366,82.7082 278.533,84.0416 285,80.5C 286.059,80.6301 286.892,81.1301 287.5,82C 292.406,83.756 295.073,82.0893 295.5,77C 294.574,73.8611 294.408,70.6944 295,67.5C 296.028,71.4728 296.861,75.4728 297.5,79.5 Z"/></g>
<g><path style="opacity:0.875" fill="#c968e4" d="M 421.5,58.5 C 421.775,60.7583 422.775,61.0916 424.5,59.5C 425.271,57.1378 426.105,54.8045 427,52.5C 432.848,50.7336 435.348,53.0669 434.5,59.5C 441.505,60.2255 443.172,63.5589 439.5,69.5C 437.833,69.5 436.167,69.5 434.5,69.5C 434.5,70.8333 434.5,72.1667 434.5,73.5C 437.365,73.0548 439.865,73.7215 442,75.5C 442.336,82.1075 439.169,84.6075 432.5,83C 428.42,81.935 426.254,79.435 426,75.5C 428.869,81.3502 433.369,83.0168 439.5,80.5C 440.415,79.6721 441.081,78.6721 441.5,77.5C 439.575,74.828 436.908,73.828 433.5,74.5C 433.739,72.5328 433.406,70.6995 432.5,69C 434.556,68.6892 436.556,68.1892 438.5,67.5C 440.219,62.3076 438.219,59.9743 432.5,60.5C 432.663,58.1432 432.497,55.8098 432,53.5C 430.667,52.1667 429.333,52.1667 428,53.5C 427.562,57.8274 425.729,61.3274 422.5,64C 425.394,66.9087 426.227,70.4087 425,74.5C 424.814,72.0995 424.314,69.7662 423.5,67.5C 421.776,66.3387 420.11,66.5053 418.5,68C 420,69.5 421.5,71 423,72.5C 424.616,80.5577 421.283,84.8911 413,85.5C 404.269,84.9891 401.769,80.9891 405.5,73.5C 403.348,71.1882 401.348,71.5215 399.5,74.5C 400.52,76.4325 400.687,78.4325 400,80.5C 394.076,84.5713 388.243,84.238 382.5,79.5C 380.5,83.9974 377.166,85.4974 372.5,84C 368.05,81.3807 364.05,78.2141 360.5,74.5C 359.599,73.7095 358.932,72.7095 358.5,71.5C 358.217,70.7109 357.717,70.0442 357,69.5C 356.827,74.5836 356.161,79.5836 355,84.5C 352.237,87.288 349.903,86.9547 348,83.5C 346.434,73.2267 346.101,62.8934 347,52.5C 349.21,49.7104 352.044,48.877 355.5,50C 359.635,54.4784 363.635,58.9784 367.5,63.5C 367.685,65.1958 368.519,66.5291 370,67.5C 370.195,61.4361 370.861,55.4361 372,49.5C 375.381,45.5149 378.714,45.5149 382,49.5C 382.175,53.211 382.675,56.8776 383.5,60.5C 390.004,55.1844 396.337,55.5177 402.5,61.5C 408.014,54.9286 414.348,53.9286 421.5,58.5 Z M 401.5,73.5 C 401.351,74.552 401.517,75.552 402,76.5C 403.812,74.6964 403.646,73.6964 401.5,73.5 Z M 390.5,59.5 C 395.954,59.5483 399.62,62.0483 401.5,67C 399.112,71.1958 395.445,73.0291 390.5,72.5C 390.33,73.8221 390.663,74.9887 391.5,76C 393.941,76.036 395.941,76.8693 397.5,78.5C 392.777,81.463 388.61,80.7963 385,76.5C 383.083,71.722 383.417,67.0554 386,62.5C 387.409,61.2189 388.909,60.2189 390.5,59.5 Z M 416.5,64.5 C 415.054,63.3871 413.387,63.2204 411.5,64C 410.167,65.3333 410.167,66.6667 411.5,68C 413.154,68.6077 414.821,69.1077 416.5,69.5C 422.822,76.3444 421.322,80.6777 412,82.5C 407.891,82.5291 406.057,80.5291 406.5,76.5C 409.167,76.5 411.833,76.5 414.5,76.5C 413.472,73.2856 411.138,71.4523 407.5,71C 403.5,67.6667 403.5,64.3333 407.5,61C 412.191,57.4148 416.191,57.9148 419.5,62.5C 418.995,63.9185 417.995,64.5852 416.5,64.5 Z M 428.5,55.5 C 429.178,59.2727 427.844,62.106 424.5,64C 425.701,64.9025 426.535,66.0692 427,67.5C 427.297,70.914 427.964,74.2473 429,77.5C 432.129,80.6677 435.462,81.0011 439,78.5C 439.617,77.5509 439.451,76.7175 438.5,76C 436.138,76.9321 433.972,76.4321 432,74.5C 429.35,68.2974 431.516,65.6308 438.5,66.5C 438.649,65.448 438.483,64.448 438,63.5C 436.266,62.7511 434.433,62.2511 432.5,62C 431.751,60.2663 431.251,58.433 431,56.5C 430.329,55.7476 429.496,55.4142 428.5,55.5 Z M 357.5,65.5 C 357.316,62.8269 356.149,62.1602 354,63.5C 353.667,69.5 353.333,75.5 353,81.5C 352.586,81.9574 352.086,82.2907 351.5,82.5C 349.947,77.3206 349.281,71.9873 349.5,66.5C 349.667,62.5 349.833,58.5 350,54.5C 352.476,52.1845 354.809,52.5178 357,55.5C 360.56,61.4487 364.726,66.9487 369.5,72C 370.793,72.49 372.127,72.6567 373.5,72.5C 373.334,66.1579 373.5,59.8246 374,53.5C 374.117,50.3713 375.617,49.2046 378.5,50C 379.19,57.648 379.524,65.3147 379.5,73C 379.423,82.2764 375.756,83.943 368.5,78C 364.968,73.6398 361.301,69.4732 357.5,65.5 Z"/></g>
<g><path style="opacity:0.322" fill="#dc9cec" d="M 416.5,64.5 C 417.995,64.5852 418.995,63.9185 419.5,62.5C 416.191,57.9148 412.191,57.4148 407.5,61C 403.5,64.3333 403.5,67.6667 407.5,71C 411.138,71.4523 413.472,73.2856 414.5,76.5C 411.833,76.5 409.167,76.5 406.5,76.5C 406.057,80.5291 407.891,82.5291 412,82.5C 421.322,80.6777 422.822,76.3444 416.5,69.5C 424.405,73.9658 424.405,78.4658 416.5,83C 412.171,84.1515 408.338,83.3181 405,80.5C 403.859,77.1432 405.025,75.1432 408.5,74.5C 410.155,75.228 411.821,75.3947 413.5,75C 411.167,74 408.833,73 406.5,72C 402.008,66.307 403.008,61.6403 409.5,58C 412.167,57.3333 414.833,57.3333 417.5,58C 420.362,59.7859 421.028,62.1192 419.5,65C 418.251,65.7401 417.251,65.5735 416.5,64.5 Z"/></g>
<g><path style="opacity:0.192" fill="#dc9dec" d="M 357.5,65.5 C 356.883,65.3893 356.383,65.056 356,64.5C 355.201,70.4853 354.535,76.4853 354,82.5C 352.451,85.0026 350.784,85.0026 349,82.5C 347.602,73.2031 347.268,63.8697 348,54.5C 349.684,50.8972 352.184,50.0639 355.5,52C 360.674,58.6701 366.008,65.1701 371.5,71.5C 372.331,64.8581 372.831,58.1915 373,51.5C 375.135,46.6747 377.801,46.3414 381,50.5C 381.489,60.519 381.156,70.519 380,80.5C 376.804,84.1868 373.304,84.3534 369.5,81C 364.394,76.5857 360.394,71.419 357.5,65.5 Z M 357.5,65.5 C 361.301,69.4732 364.968,73.6398 368.5,78C 375.756,83.943 379.423,82.2764 379.5,73C 379.524,65.3147 379.19,57.648 378.5,50C 375.617,49.2046 374.117,50.3713 374,53.5C 373.5,59.8246 373.334,66.1579 373.5,72.5C 372.127,72.6567 370.793,72.49 369.5,72C 364.726,66.9487 360.56,61.4487 357,55.5C 354.809,52.5178 352.476,52.1845 350,54.5C 349.833,58.5 349.667,62.5 349.5,66.5C 349.281,71.9873 349.947,77.3206 351.5,82.5C 352.086,82.2907 352.586,81.9574 353,81.5C 353.333,75.5 353.667,69.5 354,63.5C 356.149,62.1602 357.316,62.8269 357.5,65.5 Z"/></g>
<g><path style="opacity:0.231" fill="#db9aec" d="M 416.5,64.5 C 414.571,64.2308 412.905,64.7308 411.5,66C 413.584,66.6972 415.251,67.8639 416.5,69.5C 414.821,69.1077 413.154,68.6077 411.5,68C 410.167,66.6667 410.167,65.3333 411.5,64C 413.387,63.2204 415.054,63.3871 416.5,64.5 Z"/></g>
<g><path style="opacity:0.353" fill="#dd9fec" d="M 388.5,58.5 C 397.506,57.0253 402.006,60.692 402,69.5C 399.134,72.3485 395.634,73.8485 391.5,74C 394.149,74.4523 396.649,75.2857 399,76.5C 399.561,79.2981 398.394,81.1314 395.5,82C 390.048,83.0229 385.881,81.1896 383,76.5C 381.015,69.1278 382.848,63.1278 388.5,58.5 Z M 390.5,59.5 C 388.909,60.2189 387.409,61.2189 386,62.5C 383.417,67.0554 383.083,71.722 385,76.5C 388.61,80.7963 392.777,81.463 397.5,78.5C 395.941,76.8693 393.941,76.036 391.5,76C 390.663,74.9887 390.33,73.8221 390.5,72.5C 395.445,73.0291 399.112,71.1958 401.5,67C 399.62,62.0483 395.954,59.5483 390.5,59.5 Z"/></g>
<g><path style="opacity:0.308" fill="#db9bec" d="M 389.5,63.5 C 391.857,63.3367 394.19,63.5034 396.5,64C 397.337,65.0113 397.67,66.1779 397.5,67.5C 395.181,68.167 392.847,68.3336 390.5,68C 389.692,67.6924 389.025,67.1924 388.5,66.5C 389.127,65.5832 389.461,64.5832 389.5,63.5 Z"/></g>
<g><path style="opacity:0.932" fill="#c96ae5" d="M 391.5,64.5 C 393.429,64.2308 395.095,64.7308 396.5,66C 394.5,66.6667 392.5,66.6667 390.5,66C 391.056,65.6174 391.389,65.1174 391.5,64.5 Z"/></g>
<g><path style="opacity:0.106" fill="#9b5eae" d="M 241.5,52.5 C 241.471,62.8596 241.304,73.1929 241,83.5C 243.904,85.2268 247.07,85.8935 250.5,85.5C 250.5,86.1667 250.833,86.5 251.5,86.5C 249.034,87.6341 246.367,87.8007 243.5,87C 241.333,86.1667 239.833,84.6667 239,82.5C 239.964,72.4315 240.797,62.4315 241.5,52.5 Z"/></g>
<g><path style="opacity:1" fill="#ad2d6f" d="M 55.5,66.5 C 55.6427,68.2624 55.3094,69.9291 54.5,71.5C 63.1586,72.9149 69.992,77.2482 75,84.5C 77.1985,91.3474 78.8652,98.3474 80,105.5C 84.2226,114.389 91.0559,119.723 100.5,121.5C 82.4626,121.9 64.4626,121.4 46.5,120C 30.351,112.901 25.5176,101.068 32,84.5C 37.1653,76.8475 44.332,72.1808 53.5,70.5C 53.9943,68.9745 54.661,67.6412 55.5,66.5 Z"/></g>
</svg>
