<?xml version="1.0" encoding="UTF-8"?>
<!DOCTYPE svg PUBLIC "-//W3C//DTD SVG 1.1//EN" "http://www.w3.org/Graphics/SVG/1.1/DTD/svg11.dtd">
<svg xmlns="http://www.w3.org/2000/svg" version="1.1" width="463px" height="142px" style="shape-rendering:geometricPrecision; text-rendering:geometricPrecision; image-rendering:optimizeQuality; fill-rule:evenodd; clip-rule:evenodd" xmlns:xlink="http://www.w3.org/1999/xlink">
<g><path style="opacity:1" fill="#873485" d="M 131.5,16.5 C 131.833,16.5 132.167,16.5 132.5,16.5C 137.544,16.1725 142.544,16.5059 147.5,17.5C 146.726,18.7112 145.893,18.7112 145,17.5C 144.535,18.9308 143.701,20.0975 142.5,21C 144.433,21.7826 145.933,21.2826 147,19.5C 151.707,21.0895 151.54,22.2562 146.5,23C 147.448,23.4828 148.448,23.6495 149.5,23.5C 149.903,26.4059 151.569,28.2393 154.5,29C 153.833,29.3333 153.167,29.6667 152.5,30C 153.967,31.0975 154.801,32.5975 155,34.5C 156.645,34.6932 158.479,34.8598 160.5,35C 159.33,39.8041 160.664,43.8041 164.5,47C 164.167,47.3333 163.833,47.6667 163.5,48C 165.931,50.3215 168.264,52.8215 170.5,55.5C 171.736,54.7542 173.07,54.4208 174.5,54.5C 173.803,59.6091 174.803,64.2758 177.5,68.5C 178.689,69.4287 180.022,69.762 181.5,69.5C 181.421,70.9305 181.754,72.2638 182.5,73.5C 184.959,75.9836 187.626,77.9836 190.5,79.5C 189.595,76.7855 189.262,74.1188 189.5,71.5C 191.385,70.8027 191.718,69.8027 190.5,68.5C 192.001,64.9058 193.001,61.2391 193.5,57.5C 191.82,74.4779 196.153,89.4779 206.5,102.5C 208.651,105.151 210.984,107.651 213.5,110C 212.293,111.3 211.626,112.8 211.5,114.5C 208.41,118.093 204.41,119.759 199.5,119.5C 198.5,119.5 197.5,119.5 196.5,119.5C 197.018,118.423 197.352,117.256 197.5,116C 196.105,113.321 195.439,110.488 195.5,107.5C 192.538,107.883 191.538,106.883 192.5,104.5C 189.791,102.79 187.791,100.456 186.5,97.5C 185.476,96.1468 184.143,95.4802 182.5,95.5C 182.908,92.4007 181.741,90.0674 179,88.5C 178.199,83.6968 175.533,80.3635 171,78.5C 170.544,77.2559 171.044,76.4226 172.5,76C 170.754,75.5291 169.087,74.8624 167.5,74C 167.833,73.6667 168.167,73.3333 168.5,73C 166.634,70.2968 164.967,67.4634 163.5,64.5C 163.167,65.1667 162.833,65.8333 162.5,66.5C 158.833,65.5 158.5,63.8333 161.5,61.5C 161.281,60.062 160.781,58.7287 160,57.5C 158.817,58.731 157.651,58.731 156.5,57.5C 152.459,51.4141 148.959,45.0808 146,38.5C 144.488,36.0426 143.154,36.0426 142,38.5C 141.316,37.2161 141.483,36.0495 142.5,35C 140.007,33.5333 138.34,31.3666 137.5,28.5C 135.139,27.105 133.472,25.105 132.5,22.5C 130.193,21.5082 128.193,20.1749 126.5,18.5C 128.403,18.2041 130.07,17.5375 131.5,16.5 Z"/></g>
<g><path style="opacity:0.976" fill="#a575a3" d="M 131.5,16.5 C 130.07,17.5375 128.403,18.2041 126.5,18.5C 125.167,19.1667 123.833,19.8333 122.5,20.5C 121.5,20.5 120.5,20.5 119.5,20.5C 123.085,18.1939 127.085,16.8606 131.5,16.5 Z"/></g>
<g><path style="opacity:1" fill="#762f75" d="M 119.5,20.5 C 120.5,20.5 121.5,20.5 122.5,20.5C 123.914,22.1385 123.58,23.4718 121.5,24.5C 124.659,31.8279 129.492,37.8279 136,42.5C 136.662,44.8127 137.162,47.146 137.5,49.5C 138.5,49.5 139.5,49.5 140.5,49.5C 140.784,52.2538 141.451,54.9205 142.5,57.5C 143.086,57.2907 143.586,56.9574 144,56.5C 145.751,58.4899 146.751,60.8232 147,63.5C 149.099,66.6803 151.932,69.0137 155.5,70.5C 154.374,72.9497 155.041,74.9497 157.5,76.5C 157.291,77.086 156.957,77.586 156.5,78C 159.544,79.5475 161.544,82.0475 162.5,85.5C 166.5,86.8333 169.167,89.5 170.5,93.5C 173.835,94.5484 175.335,96.8817 175,100.5C 176.753,103.005 178.253,105.671 179.5,108.5C 181.173,110.086 183.173,110.753 185.5,110.5C 185.739,112.467 185.406,114.301 184.5,116C 186.92,115.012 189.253,115.345 191.5,117C 189.347,117.099 187.681,117.933 186.5,119.5C 178.833,119.5 171.167,119.5 163.5,119.5C 159.377,116.727 155.044,114.227 150.5,112C 144.639,104.958 140.139,97.1246 137,88.5C 136.667,82.1667 136.333,75.8333 136,69.5C 135.427,67.3594 134.594,65.3594 133.5,63.5C 126.709,48.7904 115.376,40.4571 99.5,38.5C 99.5,37.8333 99.5,37.1667 99.5,36.5C 104.223,28.797 110.89,23.4636 119.5,20.5 Z"/></g>
<g><path style="opacity:1" fill="#8d3b8c" d="M 132.5,16.5 C 144.066,14.1642 155.066,15.8308 165.5,21.5C 165.539,22.5832 165.873,23.5832 166.5,24.5C 169.183,25.5103 171.849,26.5103 174.5,27.5C 181.032,33.03 186.032,39.6966 189.5,47.5C 189.528,50.9164 190.528,53.9164 192.5,56.5C 194.415,56.2155 196.081,56.5489 197.5,57.5C 196.167,57.5 194.833,57.5 193.5,57.5C 193.001,61.2391 192.001,64.9058 190.5,68.5C 191.718,69.8027 191.385,70.8027 189.5,71.5C 189.262,74.1188 189.595,76.7855 190.5,79.5C 187.626,77.9836 184.959,75.9836 182.5,73.5C 181.754,72.2638 181.421,70.9305 181.5,69.5C 180.022,69.762 178.689,69.4287 177.5,68.5C 174.803,64.2758 173.803,59.6091 174.5,54.5C 173.07,54.4208 171.736,54.7542 170.5,55.5C 168.264,52.8215 165.931,50.3215 163.5,48C 163.833,47.6667 164.167,47.3333 164.5,47C 160.664,43.8041 159.33,39.8041 160.5,35C 158.479,34.8598 156.645,34.6932 155,34.5C 154.801,32.5975 153.967,31.0975 152.5,30C 153.167,29.6667 153.833,29.3333 154.5,29C 151.569,28.2393 149.903,26.4059 149.5,23.5C 148.448,23.6495 147.448,23.4828 146.5,23C 151.54,22.2562 151.707,21.0895 147,19.5C 145.933,21.2826 144.433,21.7826 142.5,21C 143.701,20.0975 144.535,18.9308 145,17.5C 145.893,18.7112 146.726,18.7112 147.5,17.5C 142.544,16.5059 137.544,16.1725 132.5,16.5 Z"/></g>
<g><path style="opacity:1" fill="#b079ac" d="M 165.5,21.5 C 169.054,22.7693 172.054,24.7693 174.5,27.5C 171.849,26.5103 169.183,25.5103 166.5,24.5C 165.873,23.5832 165.539,22.5832 165.5,21.5 Z"/></g>
<g><path style="opacity:1" fill="#7f327d" d="M 126.5,18.5 C 128.193,20.1749 130.193,21.5082 132.5,22.5C 133.472,25.105 135.139,27.105 137.5,28.5C 138.34,31.3666 140.007,33.5333 142.5,35C 141.483,36.0495 141.316,37.2161 142,38.5C 143.154,36.0426 144.488,36.0426 146,38.5C 148.959,45.0808 152.459,51.4141 156.5,57.5C 157.651,58.731 158.817,58.731 160,57.5C 160.781,58.7287 161.281,60.062 161.5,61.5C 158.5,63.8333 158.833,65.5 162.5,66.5C 162.833,65.8333 163.167,65.1667 163.5,64.5C 164.967,67.4634 166.634,70.2968 168.5,73C 168.167,73.3333 167.833,73.6667 167.5,74C 169.087,74.8624 170.754,75.5291 172.5,76C 171.044,76.4226 170.544,77.2559 171,78.5C 175.533,80.3635 178.199,83.6968 179,88.5C 181.741,90.0674 182.908,92.4007 182.5,95.5C 184.143,95.4802 185.476,96.1468 186.5,97.5C 187.791,100.456 189.791,102.79 192.5,104.5C 191.538,106.883 192.538,107.883 195.5,107.5C 195.439,110.488 196.105,113.321 197.5,116C 197.352,117.256 197.018,118.423 196.5,119.5C 193.167,119.5 189.833,119.5 186.5,119.5C 187.681,117.933 189.347,117.099 191.5,117C 189.253,115.345 186.92,115.012 184.5,116C 185.406,114.301 185.739,112.467 185.5,110.5C 183.173,110.753 181.173,110.086 179.5,108.5C 178.253,105.671 176.753,103.005 175,100.5C 175.335,96.8817 173.835,94.5484 170.5,93.5C 169.167,89.5 166.5,86.8333 162.5,85.5C 161.544,82.0475 159.544,79.5475 156.5,78C 156.957,77.586 157.291,77.086 157.5,76.5C 155.041,74.9497 154.374,72.9497 155.5,70.5C 151.932,69.0137 149.099,66.6803 147,63.5C 146.751,60.8232 145.751,58.4899 144,56.5C 143.586,56.9574 143.086,57.2907 142.5,57.5C 141.451,54.9205 140.784,52.2538 140.5,49.5C 139.5,49.5 138.5,49.5 137.5,49.5C 137.162,47.146 136.662,44.8127 136,42.5C 129.492,37.8279 124.659,31.8279 121.5,24.5C 123.58,23.4718 123.914,22.1385 122.5,20.5C 123.833,19.8333 125.167,19.1667 126.5,18.5 Z"/></g>
<g><path style="opacity:1" fill="#b975a0" d="M 99.5,36.5 C 99.5,37.1667 99.5,37.8333 99.5,38.5C 94.1667,38.8333 88.8333,39.1667 83.5,39.5C 88.6906,38.213 94.0239,37.213 99.5,36.5 Z"/></g>
<g><path style="opacity:1" fill="#9c307a" d="M 99.5,38.5 C 115.376,40.4571 126.709,48.7904 133.5,63.5C 132.5,63.5 131.5,63.5 130.5,63.5C 130.657,62.1266 130.49,60.7932 130,59.5C 128.301,60.4061 126.467,60.7394 124.5,60.5C 124.5,58.8333 124.5,57.1667 124.5,55.5C 121.986,55.2461 119.652,54.4127 117.5,53C 117.07,52.0805 116.736,51.2472 116.5,50.5C 114.477,52.1733 112.144,52.8399 109.5,52.5C 109.5,50.5 109.5,48.5 109.5,46.5C 100.143,46.1684 90.8096,46.5017 81.5,47.5C 82.3094,49.0709 82.6427,50.7376 82.5,52.5C 81.325,52.281 80.325,52.6143 79.5,53.5C 81.0453,54.4519 82.712,54.7852 84.5,54.5C 84.3379,56.5273 84.5045,58.5273 85,60.5C 87.9458,64.6195 91.1124,68.6195 94.5,72.5C 96.0453,73.4519 97.712,73.7852 99.5,73.5C 99.3433,74.8734 99.51,76.2068 100,77.5C 100.718,76.5494 101.551,76.3828 102.5,77C 101.62,78.3561 101.286,79.8561 101.5,81.5C 102.791,82.7784 104.791,83.4451 107.5,83.5C 107.98,86.0046 108.98,88.3379 110.5,90.5C 111.325,91.3857 112.325,91.719 113.5,91.5C 113.351,92.552 113.517,93.552 114,94.5C 114.741,93.3595 115.575,93.3595 116.5,94.5C 118.014,100.105 121.014,104.605 125.5,108C 125.5,109 125.5,110 125.5,111C 126.551,112.385 127.884,113.385 129.5,114C 128.396,115.131 128.729,115.965 130.5,116.5C 131.192,115.975 131.692,115.308 132,114.5C 132.658,116.108 132.158,117.275 130.5,118C 127.635,118.183 124.969,118.683 122.5,119.5C 120.143,119.663 117.81,119.497 115.5,119C 114.643,118.311 113.977,117.478 113.5,116.5C 114.248,114.584 114.248,112.584 113.5,110.5C 109.227,109.917 107.394,107.584 108,103.5C 107,103.167 106,102.833 105,102.5C 99.1419,93.7784 92.1419,86.1117 84,79.5C 78.9085,72.8203 73.9085,66.1536 69,59.5C 68,59.1667 67,58.8333 66,58.5C 65.5,57.5 65,56.5 64.5,55.5C 66.0863,53.8273 66.7529,51.8273 66.5,49.5C 70.7694,43.8627 76.4361,40.5294 83.5,39.5C 88.8333,39.1667 94.1667,38.8333 99.5,38.5 Z"/></g>
<g><path style="opacity:1" fill="#9f307c" d="M 133.5,63.5 C 134.594,65.3594 135.427,67.3594 136,69.5C 136.333,75.8333 136.667,82.1667 137,88.5C 140.139,97.1246 144.639,104.958 150.5,112C 155.044,114.227 159.377,116.727 163.5,119.5C 149.833,119.5 136.167,119.5 122.5,119.5C 124.969,118.683 127.635,118.183 130.5,118C 132.158,117.275 132.658,116.108 132,114.5C 131.692,115.308 131.192,115.975 130.5,116.5C 128.729,115.965 128.396,115.131 129.5,114C 127.884,113.385 126.551,112.385 125.5,111C 125.5,110 125.5,109 125.5,108C 121.014,104.605 118.014,100.105 116.5,94.5C 115.575,93.3595 114.741,93.3595 114,94.5C 113.517,93.552 113.351,92.552 113.5,91.5C 112.325,91.719 111.325,91.3857 110.5,90.5C 108.98,88.3379 107.98,86.0046 107.5,83.5C 104.791,83.4451 102.791,82.7784 101.5,81.5C 101.286,79.8561 101.62,78.3561 102.5,77C 101.551,76.3828 100.718,76.5494 100,77.5C 99.51,76.2068 99.3433,74.8734 99.5,73.5C 97.712,73.7852 96.0453,73.4519 94.5,72.5C 91.1124,68.6195 87.9458,64.6195 85,60.5C 84.5045,58.5273 84.3379,56.5273 84.5,54.5C 82.712,54.7852 81.0453,54.4519 79.5,53.5C 80.325,52.6143 81.325,52.281 82.5,52.5C 82.6427,50.7376 82.3094,49.0709 81.5,47.5C 90.8096,46.5017 100.143,46.1684 109.5,46.5C 109.5,48.5 109.5,50.5 109.5,52.5C 112.144,52.8399 114.477,52.1733 116.5,50.5C 116.736,51.2472 117.07,52.0805 117.5,53C 119.652,54.4127 121.986,55.2461 124.5,55.5C 124.5,57.1667 124.5,58.8333 124.5,60.5C 126.467,60.7394 128.301,60.4061 130,59.5C 130.49,60.7932 130.657,62.1266 130.5,63.5C 131.5,63.5 132.5,63.5 133.5,63.5 Z"/></g>
<g><path style="opacity:1" fill="#9770a7" d="M 380.5,49.5 C 379.662,49.8417 379.328,50.5084 379.5,51.5C 379.167,51.5 378.833,51.5 378.5,51.5C 376.77,50.0882 375.27,50.4215 374,52.5C 373.5,58.8246 373.334,65.1579 373.5,71.5C 373.167,71.5 372.833,71.5 372.5,71.5C 372.81,68.2869 372.477,65.2869 371.5,62.5C 371.21,58.0638 371.71,53.7305 373,49.5C 375.539,46.9327 378.039,46.9327 380.5,49.5 Z"/></g>
<g><path style="opacity:0.953" fill="#be97bd" d="M 189.5,47.5 C 191.072,50.2154 192.072,53.2154 192.5,56.5C 190.528,53.9164 189.528,50.9164 189.5,47.5 Z"/></g>
<g><path style="opacity:0.11" fill="#d8cae0" d="M 380.5,49.5 C 381.906,49.9731 382.573,50.9731 382.5,52.5C 381.094,52.0269 380.427,51.0269 380.5,49.5 Z"/></g>
<g><path style="opacity:1" fill="#dccfe2" d="M 432.5,54.5 C 431.039,53.3143 429.705,53.3143 428.5,54.5C 427.833,54.8333 427.167,55.1667 426.5,55.5C 426.559,53.2776 427.725,52.2776 430,52.5C 431.376,52.6842 432.209,53.3509 432.5,54.5 Z"/></g>
<g><path style="opacity:0.994" fill="#6b1d8e" d="M 378.5,51.5 C 378.833,51.5 379.167,51.5 379.5,51.5C 379.808,61.5527 379.475,71.5527 378.5,81.5C 376.579,82.641 374.579,82.8077 372.5,82C 369.927,80.2437 367.26,78.7437 364.5,77.5C 362.404,72.2141 359.237,67.5474 355,63.5C 354.213,70.1546 353.547,76.8213 353,83.5C 352.667,83.8333 352.333,84.1667 352,84.5C 351.768,83.2625 351.268,82.2625 350.5,81.5C 350.5,73.8333 350.5,66.1667 350.5,58.5C 350.088,56.0274 351.088,54.6941 353.5,54.5C 357.099,56.2629 359.932,58.9295 362,62.5C 362.383,61.944 362.883,61.6107 363.5,61.5C 364.755,67.0003 367.755,71.3336 372.5,74.5C 372.81,75.7383 373.31,75.7383 374,74.5C 374.483,73.552 374.649,72.552 374.5,71.5C 374.334,65.8236 374.501,60.1569 375,54.5C 375.422,52.5743 376.589,51.5743 378.5,51.5 Z M 372.5,71.5 C 372.833,71.5 373.167,71.5 373.5,71.5C 373.833,71.5 374.167,71.5 374.5,71.5C 374.649,72.552 374.483,73.552 374,74.5C 373.31,75.7383 372.81,75.7383 372.5,74.5C 372.5,73.5 372.5,72.5 372.5,71.5 Z"/></g>
<g><path style="opacity:0.996" fill="#6b1e8f" d="M 258.5,52.5 C 263.779,54.4457 267.446,58.1124 269.5,63.5C 270.013,74.1618 265.013,80.6618 254.5,83C 250.582,84.1564 246.582,84.6564 242.5,84.5C 243.551,83.7777 244.218,82.7777 244.5,81.5C 245.276,72.8801 245.776,64.2134 246,55.5C 249.715,52.9239 253.882,51.9239 258.5,52.5 Z M 252.5,59.5 C 260.294,59.8001 262.461,63.4667 259,70.5C 256.828,71.5853 254.828,72.9186 253,74.5C 252.501,69.5111 252.334,64.5111 252.5,59.5 Z M 263.5,68.5 C 263.256,71.2626 261.923,73.4293 259.5,75C 257.336,75.9143 255.336,77.081 253.5,78.5C 252.537,78.0302 252.537,77.3635 253.5,76.5C 257.202,74.313 260.535,71.6463 263.5,68.5 Z"/></g>
<g><path style="opacity:1" fill="#933375" d="M 66.5,49.5 C 66.7529,51.8273 66.0863,53.8273 64.5,55.5C 65,56.5 65.5,57.5 66,58.5C 67,58.8333 68,59.1667 69,59.5C 73.9085,66.1536 78.9085,72.8203 84,79.5C 92.1419,86.1117 99.1419,93.7784 105,102.5C 106,102.833 107,103.167 108,103.5C 107.394,107.584 109.227,109.917 113.5,110.5C 114.248,112.584 114.248,114.584 113.5,116.5C 113.977,117.478 114.643,118.311 115.5,119C 117.81,119.497 120.143,119.663 122.5,119.5C 136.167,119.5 149.833,119.5 163.5,119.5C 171.167,119.5 178.833,119.5 186.5,119.5C 189.833,119.5 193.167,119.5 196.5,119.5C 197.5,119.5 198.5,119.5 199.5,119.5C 148.5,120.833 97.5,120.833 46.5,119.5C 61.837,119.667 77.1703,119.5 92.5,119C 85.8513,115.686 81.3513,110.519 79,103.5C 79.6642,90.4232 74.4976,80.5898 63.5,74C 60.2432,72.9571 56.9099,72.4571 53.5,72.5C 55.0062,63.146 59.3395,55.4793 66.5,49.5 Z"/></g>
<g><path style="opacity:0.992" fill="#ebe2ef" d="M 258.5,52.5 C 253.882,51.9239 249.715,52.9239 246,55.5C 245.776,64.2134 245.276,72.8801 244.5,81.5C 243.35,82.8502 242.683,82.6836 242.5,81C 243,79.5 243.5,78 244,76.5C 244.333,68.8333 244.667,61.1667 245,53.5C 247.417,52.0015 250.083,51.3349 253,51.5C 255.033,51.5056 256.866,51.8389 258.5,52.5 Z"/></g>
<g><path style="opacity:0.992" fill="#8a5d9d" d="M 363.5,61.5 C 362.883,61.6107 362.383,61.944 362,62.5C 359.932,58.9295 357.099,56.2629 353.5,54.5C 351.847,53.2006 350.347,53.5339 349,55.5C 348.5,62.1583 348.334,68.825 348.5,75.5C 348.5,76.1667 348.167,76.5 347.5,76.5C 346.513,70.195 346.347,63.8617 347,57.5C 347.622,51.1084 350.788,49.275 356.5,52C 359.051,55.0444 361.384,58.2111 363.5,61.5 Z"/></g>
<g><path style="opacity:1" fill="#eee5f1" d="M 378.5,51.5 C 376.589,51.5743 375.422,52.5743 375,54.5C 374.501,60.1569 374.334,65.8236 374.5,71.5C 374.167,71.5 373.833,71.5 373.5,71.5C 373.334,65.1579 373.5,58.8246 374,52.5C 375.27,50.4215 376.77,50.0882 378.5,51.5 Z"/></g>
<g><path style="opacity:0.123" fill="#c7a6d5" d="M 382.5,52.5 C 383.167,55.8333 383.833,59.1667 384.5,62.5C 384.217,63.2891 383.717,63.9558 383,64.5C 382.501,60.5138 382.334,56.5138 382.5,52.5 Z"/></g>
<g><path style="opacity:1" fill="#d5c3dd" d="M 428.5,54.5 C 429.376,54.3691 430.043,54.7025 430.5,55.5C 429.933,57.9823 429.266,60.3157 428.5,62.5C 428.5,61.8333 428.167,61.5 427.5,61.5C 427.674,59.139 428.007,56.8056 428.5,54.5 Z"/></g>
<g><path style="opacity:0.998" fill="#77428f" d="M 263.5,68.5 C 260.535,71.6463 257.202,74.313 253.5,76.5C 252.5,76.5 251.5,76.5 250.5,76.5C 250.046,69.8407 249.713,63.1741 249.5,56.5C 258.275,55.9524 262.941,59.9524 263.5,68.5 Z M 252.5,59.5 C 252.334,64.5111 252.501,69.5111 253,74.5C 254.828,72.9186 256.828,71.5853 259,70.5C 262.461,63.4667 260.294,59.8001 252.5,59.5 Z"/></g>
<g><path style="opacity:0.961" fill="#9167a3" d="M 332.5,62.5 C 331.508,62.3284 330.842,62.6618 330.5,63.5C 328.833,63.5 327.167,63.5 325.5,63.5C 326.263,62.7321 327.263,62.2321 328.5,62C 322.816,61.5088 318.482,63.6755 315.5,68.5C 315.744,64.0774 318.078,61.2441 322.5,60C 326.463,58.8634 329.796,59.6967 332.5,62.5 Z"/></g>
<g><path style="opacity:0.929" fill="#e8dcec" d="M 395.5,61.5 C 392.549,61.2872 389.882,61.9539 387.5,63.5C 386.833,63.5 386.167,63.5 385.5,63.5C 386.058,62.2101 387.058,61.3768 388.5,61C 391.039,60.2042 393.372,60.3709 395.5,61.5 Z"/></g>
<g><path style="opacity:1" fill="#9269a4" d="M 428.5,54.5 C 428.007,56.8056 427.674,59.139 427.5,61.5C 427.5,61.8333 427.5,62.1667 427.5,62.5C 425.088,62.6941 424.088,64.0274 424.5,66.5C 424.167,66.5 423.833,66.5 423.5,66.5C 423.218,65.2223 422.551,64.2223 421.5,63.5C 424.585,61.6506 426.251,58.9839 426.5,55.5C 427.167,55.1667 427.833,54.8333 428.5,54.5 Z"/></g>
<g><path style="opacity:1" fill="#9064a4" d="M 290.5,62.5 C 288.236,63.2186 285.903,63.552 283.5,63.5C 283.918,62.7784 284.584,62.2784 285.5,62C 282.183,61.0228 279.516,61.8562 277.5,64.5C 277.5,64.8333 277.5,65.1667 277.5,65.5C 276.833,65.5 276.5,65.8333 276.5,66.5C 273.802,68.5718 272.135,71.2384 271.5,74.5C 270.711,71.5544 270.711,68.8878 271.5,66.5C 272.117,66.6107 272.617,66.944 273,67.5C 277.079,59.1926 282.913,57.526 290.5,62.5 Z"/></g>
<g><path style="opacity:0.039" fill="#efe6f2" d="M 283.5,63.5 C 281.716,63.8925 280.05,64.5592 278.5,65.5C 278.5,64.8333 278.167,64.5 277.5,64.5C 279.516,61.8562 282.183,61.0228 285.5,62C 284.584,62.2784 283.918,62.7784 283.5,63.5 Z"/></g>
<g><path style="opacity:1" fill="#65307e" d="M 193.5,57.5 C 194.833,57.5 196.167,57.5 197.5,57.5C 197.833,57.5 198.167,57.5 198.5,57.5C 198.987,58.4734 199.487,59.4734 200,60.5C 201.049,59.4829 202.216,59.3162 203.5,60C 202.833,60.3333 202.167,60.6667 201.5,61C 202.308,62.7058 203.641,63.5391 205.5,63.5C 205.351,64.552 205.517,65.552 206,66.5C 211.847,67.9921 213.681,71.4921 211.5,77C 211.493,78.8122 212.16,80.3122 213.5,81.5C 212.5,82.1667 211.5,82.8333 210.5,83.5C 211.489,84.4682 212.156,85.6349 212.5,87C 212.136,91.3952 212.136,95.8952 212.5,100.5C 212.023,101.931 211.357,103.264 210.5,104.5C 209.378,103.37 208.044,102.703 206.5,102.5C 196.153,89.4779 191.82,74.4779 193.5,57.5 Z"/></g>
<g><path style="opacity:0.78" fill="#eee8f1" d="M 325.5,63.5 C 321.612,64.7252 318.612,67.0585 316.5,70.5C 316.5,69.8333 316.167,69.5 315.5,69.5C 315.5,69.1667 315.5,68.8333 315.5,68.5C 318.482,63.6755 322.816,61.5088 328.5,62C 327.263,62.2321 326.263,62.7321 325.5,63.5 Z"/></g>
<g><path style="opacity:0.996" fill="#dbcde1" d="M 353.5,54.5 C 351.088,54.6941 350.088,56.0274 350.5,58.5C 349.833,64.1667 349.167,69.8333 348.5,75.5C 348.334,68.825 348.5,62.1583 349,55.5C 350.347,53.5339 351.847,53.2006 353.5,54.5 Z"/></g>
<g><path style="opacity:0.999" fill="#763e8d" d="M 198.5,57.5 C 219.76,63.6692 227.926,77.6692 223,99.5C 221.071,106.054 217.238,111.054 211.5,114.5C 211.626,112.8 212.293,111.3 213.5,110C 210.984,107.651 208.651,105.151 206.5,102.5C 208.044,102.703 209.378,103.37 210.5,104.5C 211.357,103.264 212.023,101.931 212.5,100.5C 212.136,95.8952 212.136,91.3952 212.5,87C 212.156,85.6349 211.489,84.4682 210.5,83.5C 211.5,82.8333 212.5,82.1667 213.5,81.5C 212.16,80.3122 211.493,78.8122 211.5,77C 213.681,71.4921 211.847,67.9921 206,66.5C 205.517,65.552 205.351,64.552 205.5,63.5C 203.641,63.5391 202.308,62.7058 201.5,61C 202.167,60.6667 202.833,60.3333 203.5,60C 202.216,59.3162 201.049,59.4829 200,60.5C 199.487,59.4734 198.987,58.4734 198.5,57.5 Z"/></g>
<g><path style="opacity:0.992" fill="#8f62a1" d="M 311.5,63.5 C 310.833,63.5 310.5,63.8333 310.5,64.5C 305.162,64.4491 302.495,61.7825 302.5,56.5C 302.294,54.4508 301.461,54.1175 300,55.5C 299.71,57.9204 299.21,60.2537 298.5,62.5C 296.618,63.221 296.285,64.221 297.5,65.5C 299.797,70.282 300.464,75.282 299.5,80.5C 297.652,75.1896 295.652,69.8562 293.5,64.5C 296.351,61.7962 297.851,58.4629 298,54.5C 299.466,52.6751 301.299,52.1751 303.5,53C 305.068,55.3041 306.235,57.8041 307,60.5C 308.878,61.0527 310.378,62.0527 311.5,63.5 Z"/></g>
<g><path style="opacity:0.88" fill="#eae1ee" d="M 302.5,56.5 C 301.203,58.3713 300.203,60.3713 299.5,62.5C 299.167,62.5 298.833,62.5 298.5,62.5C 299.21,60.2537 299.71,57.9204 300,55.5C 301.461,54.1175 302.294,54.4508 302.5,56.5 Z"/></g>
<g><path style="opacity:0.996" fill="#6c208f" d="M 412.5,61.5 C 414.833,61.5 417.167,61.5 419.5,61.5C 419.5,62.8333 419.5,64.1667 419.5,65.5C 417.801,65.3796 416.135,65.0463 414.5,64.5C 411.719,64.9014 410.719,66.2347 411.5,68.5C 413.071,69.3094 414.738,69.6427 416.5,69.5C 418.027,69.427 419.027,70.0937 419.5,71.5C 422.239,81.4278 418.572,85.0944 408.5,82.5C 407.702,82.0431 407.369,81.3764 407.5,80.5C 410.141,79.0072 412.474,78.0072 414.5,77.5C 414.5,76.5 414.5,75.5 414.5,74.5C 411.104,74.1157 408.104,72.7823 405.5,70.5C 405.517,68.4352 405.85,66.4352 406.5,64.5C 407.167,64.5 407.5,64.1667 407.5,63.5C 409.05,62.5592 410.716,61.8925 412.5,61.5 Z"/></g>
<g><path style="opacity:0.996" fill="#6c248f" d="M 290.5,62.5 C 290.839,67.5354 291.506,72.5354 292.5,77.5C 292.812,80.6934 291.478,81.8601 288.5,81C 287.845,79.5134 286.845,78.3467 285.5,77.5C 278.036,82.9169 274.369,81.2502 274.5,72.5C 275.167,70.5 275.833,68.5 276.5,66.5C 277.167,66.5 277.5,66.1667 277.5,65.5C 277.833,65.5 278.167,65.5 278.5,65.5C 280.05,64.5592 281.716,63.8925 283.5,63.5C 285.903,63.552 288.236,63.2186 290.5,62.5 Z M 284.5,68.5 C 286.208,72.4434 285.041,75.4434 281,77.5C 282.636,74.8622 283.802,71.8622 284.5,68.5 Z"/></g>
<g><path style="opacity:0.993" fill="#6b228c" d="M 395.5,61.5 C 396.705,62.6857 398.039,62.6857 399.5,61.5C 400.5,61.8333 401.167,62.5 401.5,63.5C 402.186,67.287 401.186,70.4537 398.5,73C 400.387,73.1626 401.887,72.3293 403,70.5C 403.399,70.7284 403.565,71.0618 403.5,71.5C 403.167,73.8333 401.833,75.1667 399.5,75.5C 390.478,76.8882 390.811,78.2215 400.5,79.5C 398.896,83.3898 395.896,85.0565 391.5,84.5C 392.609,83.71 393.942,83.21 395.5,83C 393.5,82.6667 391.5,82.3333 389.5,82C 386.921,80.9243 385.254,79.091 384.5,76.5C 384.119,71.8143 385.119,67.4809 387.5,63.5C 389.882,61.9539 392.549,61.2872 395.5,61.5 Z"/></g>
<g><path style="opacity:1" fill="#814c99" d="M 428.5,54.5 C 429.705,53.3143 431.039,53.3143 432.5,54.5C 434.293,56.4261 435.293,58.7594 435.5,61.5C 439.692,61.1766 441.692,63.1766 441.5,67.5C 441.48,68.7261 441.147,69.7261 440.5,70.5C 440.631,69.6236 440.298,68.9569 439.5,68.5C 436.897,69.5617 434.23,69.7284 431.5,69C 433.5,68.6667 435.5,68.3333 437.5,68C 438.337,66.9887 438.67,65.8221 438.5,64.5C 436.43,64.5514 434.597,63.8847 433,62.5C 430.846,63.2741 428.679,63.9408 426.5,64.5C 426.833,63.8333 427.167,63.1667 427.5,62.5C 427.833,62.5 428.167,62.5 428.5,62.5C 429.266,60.3157 429.933,57.9823 430.5,55.5C 430.043,54.7025 429.376,54.3691 428.5,54.5 Z"/></g>
<g><path style="opacity:1" fill="#86589a" d="M 271.5,63.5 C 270.833,63.5 270.167,63.5 269.5,63.5C 267.446,58.1124 263.779,54.4457 258.5,52.5C 256.866,51.8389 255.033,51.5056 253,51.5C 250.083,51.3349 247.417,52.0015 245,53.5C 244.667,61.1667 244.333,68.8333 244,76.5C 243.5,78 243,79.5 242.5,81C 242.683,82.6836 243.35,82.8502 244.5,81.5C 244.218,82.7777 243.551,83.7777 242.5,84.5C 240.082,82.1221 239.915,79.4554 242,76.5C 242.333,68.8333 242.667,61.1667 243,53.5C 243.374,52.5838 243.874,51.7504 244.5,51C 257.737,46.2383 266.737,50.4049 271.5,63.5 Z"/></g>
<g><path style="opacity:0.969" fill="#c6a6d3" d="M 391.5,68.5 C 393.857,68.3367 396.19,68.5034 398.5,69C 395.735,71.0407 393.401,70.8741 391.5,68.5 Z"/></g>
<g><path style="opacity:0.998" fill="#85519c" d="M 364.5,77.5 C 361.479,74.6336 358.979,71.3003 357,67.5C 357.998,73.8679 357.665,80.2013 356,86.5C 352.395,88.1112 349.895,87.1112 348.5,83.5C 348.677,76.8656 349.177,76.8656 350,83.5C 350.464,82.9056 350.631,82.2389 350.5,81.5C 351.268,82.2625 351.768,83.2625 352,84.5C 352.333,84.1667 352.667,83.8333 353,83.5C 353.547,76.8213 354.213,70.1546 355,63.5C 359.237,67.5474 362.404,72.2141 364.5,77.5 Z"/></g>
<g><path style="opacity:1" fill="#723d8a" d="M 363.5,61.5 C 366.137,64.9887 368.637,68.6553 371,72.5C 371.498,69.1832 371.665,65.8499 371.5,62.5C 372.477,65.2869 372.81,68.2869 372.5,71.5C 372.5,72.5 372.5,73.5 372.5,74.5C 367.755,71.3336 364.755,67.0003 363.5,61.5 Z"/></g>
<g><path style="opacity:0.996" fill="#6c208e" d="M 302.5,56.5 C 302.495,61.7825 305.162,64.4491 310.5,64.5C 310.67,65.8221 310.337,66.9887 309.5,68C 307.527,68.4955 305.527,68.6621 303.5,68.5C 302.493,72.7795 303.826,75.7795 307.5,77.5C 308.718,78.1614 310.051,78.8281 311.5,79.5C 311.291,80.086 310.957,80.586 310.5,81C 306.779,81.6781 303.112,81.5114 299.5,80.5C 300.464,75.282 299.797,70.282 297.5,65.5C 298.167,64.5 298.833,63.5 299.5,62.5C 300.203,60.3713 301.203,58.3713 302.5,56.5 Z"/></g>
<g><path style="opacity:0.992" fill="#794491" d="M 421.5,63.5 C 422.551,64.2223 423.218,65.2223 423.5,66.5C 422.288,67.2299 421.288,68.2299 420.5,69.5C 419.131,67.876 417.464,67.376 415.5,68C 416.056,68.3826 416.389,68.8826 416.5,69.5C 414.738,69.6427 413.071,69.3094 411.5,68.5C 410.719,66.2347 411.719,64.9014 414.5,64.5C 416.135,65.0463 417.801,65.3796 419.5,65.5C 419.5,64.1667 419.5,62.8333 419.5,61.5C 417.167,61.5 414.833,61.5 412.5,61.5C 413.609,60.71 414.942,60.21 416.5,60C 412.128,58.5814 408.794,59.7481 406.5,63.5C 406.5,63.8333 406.5,64.1667 406.5,64.5C 405.053,65.1342 404.387,66.3009 404.5,68C 404.528,69.0698 404.861,69.9032 405.5,70.5C 408.104,72.7823 411.104,74.1157 414.5,74.5C 414.5,75.5 414.5,76.5 414.5,77.5C 412.218,76.6103 409.885,76.4436 407.5,77C 404.83,79.4149 404.83,80.5816 407.5,80.5C 407.369,81.3764 407.702,82.0431 408.5,82.5C 418.572,85.0944 422.239,81.4278 419.5,71.5C 424.935,75.3834 425.602,79.8834 421.5,85C 414.781,87.8513 408.947,86.6846 404,81.5C 403.104,78.2079 404.271,75.8745 407.5,74.5C 406.412,73.0656 405.078,72.0656 403.5,71.5C 403.565,71.0618 403.399,70.7284 403,70.5C 401.887,72.3293 400.387,73.1626 398.5,73C 401.186,70.4537 402.186,67.287 401.5,63.5C 402.117,63.6107 402.617,63.944 403,64.5C 406.246,58.1347 411.413,55.968 418.5,58C 420.16,59.4877 421.16,61.321 421.5,63.5 Z"/></g>
<g><path style="opacity:0.082" fill="#f1ebf5" d="M 412.5,61.5 C 410.716,61.8925 409.05,62.5592 407.5,63.5C 407.167,63.5 406.833,63.5 406.5,63.5C 408.794,59.7481 412.128,58.5814 416.5,60C 414.942,60.21 413.609,60.71 412.5,61.5 Z"/></g>
<g><path style="opacity:0.995" fill="#6e278f" d="M 440.5,70.5 C 438.167,70.5 435.833,70.5 433.5,70.5C 433.343,71.8734 433.51,73.2068 434,74.5C 435.948,75.1094 437.782,75.776 439.5,76.5C 434.167,77.1667 434.167,77.8333 439.5,78.5C 439.126,80.9497 437.626,81.9497 435,81.5C 432.365,81.2612 429.865,80.5945 427.5,79.5C 424.839,75.6896 423.839,71.3563 424.5,66.5C 425.167,65.8333 425.833,65.1667 426.5,64.5C 428.679,63.9408 430.846,63.2741 433,62.5C 434.597,63.8847 436.43,64.5514 438.5,64.5C 438.67,65.8221 438.337,66.9887 437.5,68C 435.5,68.3333 433.5,68.6667 431.5,69C 434.23,69.7284 436.897,69.5617 439.5,68.5C 440.298,68.9569 440.631,69.6236 440.5,70.5 Z"/></g>
<g><path style="opacity:0.984" fill="#b897c7" d="M 426.5,69.5 C 427.748,70.3339 428.415,71.6672 428.5,73.5C 428.333,74.8333 428.167,76.1667 428,77.5C 426.748,74.9865 426.248,72.3198 426.5,69.5 Z"/></g>
<g><path style="opacity:0.995" fill="#743b8e" d="M 380.5,49.5 C 380.427,51.0269 381.094,52.0269 382.5,52.5C 382.334,56.5138 382.501,60.5138 383,64.5C 383.717,63.9558 384.217,63.2891 384.5,62.5C 385.929,59.2519 388.429,57.9186 392,58.5C 395.168,58.1058 397.668,59.1058 399.5,61.5C 398.039,62.6857 396.705,62.6857 395.5,61.5C 393.372,60.3709 391.039,60.2042 388.5,61C 387.058,61.3768 386.058,62.2101 385.5,63.5C 384.251,66.7321 383.251,70.0655 382.5,73.5C 382.942,74.7387 383.609,75.7387 384.5,76.5C 385.254,79.091 386.921,80.9243 389.5,82C 391.5,82.3333 393.5,82.6667 395.5,83C 393.942,83.21 392.609,83.71 391.5,84.5C 387.684,83.8461 384.851,81.8461 383,78.5C 383.214,84.625 380.381,87.125 374.5,86C 370.387,84.0519 367.054,81.2186 364.5,77.5C 367.26,78.7437 369.927,80.2437 372.5,82C 374.579,82.8077 376.579,82.641 378.5,81.5C 379.475,71.5527 379.808,61.5527 379.5,51.5C 379.328,50.5084 379.662,49.8417 380.5,49.5 Z"/></g>
<g><path style="opacity:1" fill="#a983bb" d="M 350.5,58.5 C 350.5,66.1667 350.5,73.8333 350.5,81.5C 350.631,82.2389 350.464,82.9056 350,83.5C 349.177,76.8656 348.677,76.8656 348.5,83.5C 347.532,81.3926 347.198,79.0593 347.5,76.5C 348.167,76.5 348.5,76.1667 348.5,75.5C 349.167,69.8333 349.833,64.1667 350.5,58.5 Z"/></g>
<g><path style="opacity:0.984" fill="#c4a5d1" d="M 439.5,76.5 C 439.5,77.1667 439.5,77.8333 439.5,78.5C 434.167,77.8333 434.167,77.1667 439.5,76.5 Z"/></g>
<g><path style="opacity:0.992" fill="#9268a4" d="M 399.5,75.5 C 399.833,76.8333 400.167,78.1667 400.5,79.5C 390.811,78.2215 390.478,76.8882 399.5,75.5 Z"/></g>
<g><path style="opacity:1" fill="#73388e" d="M 290.5,62.5 C 293.056,66.3504 294.556,70.6837 295,75.5C 297.122,84.8292 294.289,86.8292 286.5,81.5C 281.174,84.5632 276.341,83.8965 272,79.5C 271.517,78.552 271.351,77.552 271.5,76.5C 272.978,75.5525 273.978,74.2191 274.5,72.5C 274.369,81.2502 278.036,82.9169 285.5,77.5C 286.845,78.3467 287.845,79.5134 288.5,81C 291.478,81.8601 292.812,80.6934 292.5,77.5C 291.506,72.5354 290.839,67.5354 290.5,62.5 Z"/></g>
<g><path style="opacity:1" fill="#743a8e" d="M 330.5,63.5 C 330.842,62.6618 331.508,62.3284 332.5,62.5C 335.2,65.9031 336.7,69.9031 337,74.5C 339.675,84.3459 336.841,86.6792 328.5,81.5C 323.416,84.6357 318.916,83.969 315,79.5C 314.21,83.2897 311.876,85.2897 308,85.5C 304.724,84.4504 301.89,82.7837 299.5,80.5C 303.112,81.5114 306.779,81.6781 310.5,81C 310.957,80.586 311.291,80.086 311.5,79.5C 310.051,78.8281 308.718,78.1614 307.5,77.5C 303.826,75.7795 302.493,72.7795 303.5,68.5C 305.527,68.6621 307.527,68.4955 309.5,68C 310.337,66.9887 310.67,65.8221 310.5,64.5C 310.5,63.8333 310.833,63.5 311.5,63.5C 313.375,65.5943 313.708,67.9276 312.5,70.5C 308.759,69.5985 306.759,70.9319 306.5,74.5C 308.343,75.2829 310.343,75.9495 312.5,76.5C 313.466,74.604 313.799,72.604 313.5,70.5C 313.833,69.5 314.5,68.8333 315.5,68.5C 315.5,68.8333 315.5,69.1667 315.5,69.5C 314.532,72.4453 314.366,75.4453 315,78.5C 315.198,76.6183 315.698,74.9516 316.5,73.5C 315.422,80.0653 318.089,82.232 324.5,80C 325.931,79.5348 327.097,78.7014 328,77.5C 329.422,79.6381 331.255,80.8047 333.5,81C 334.622,77.5915 334.789,74.0915 334,70.5C 333.861,67.5547 332.694,65.2214 330.5,63.5 Z M 312.5,70.5 C 312.241,74.0681 310.241,75.4015 306.5,74.5C 306.759,70.9319 308.759,69.5985 312.5,70.5 Z M 315.5,69.5 C 316.167,69.5 316.5,69.8333 316.5,70.5C 316.5,71.5 316.5,72.5 316.5,73.5C 315.698,74.9516 315.198,76.6183 315,78.5C 314.366,75.4453 314.532,72.4453 315.5,69.5 Z M 327.5,68.5 C 328.097,68.7352 328.43,69.2352 328.5,70C 328.348,74.1542 326.348,76.1542 322.5,76C 325.204,74.1401 326.871,71.6401 327.5,68.5 Z"/></g>
<g><path style="opacity:0.427" fill="#b7a1c4" d="M 312.5,70.5 C 312.833,70.5 313.167,70.5 313.5,70.5C 313.799,72.604 313.466,74.604 312.5,76.5C 310.343,75.9495 308.343,75.2829 306.5,74.5C 310.241,75.4015 312.241,74.0681 312.5,70.5 Z"/></g>
<g><path style="opacity:0.994" fill="#6b228d" d="M 325.5,63.5 C 327.167,63.5 328.833,63.5 330.5,63.5C 332.694,65.2214 333.861,67.5547 334,70.5C 334.789,74.0915 334.622,77.5915 333.5,81C 331.255,80.8047 329.422,79.6381 328,77.5C 327.097,78.7014 325.931,79.5348 324.5,80C 318.089,82.232 315.422,80.0653 316.5,73.5C 316.5,72.5 316.5,71.5 316.5,70.5C 318.612,67.0585 321.612,64.7252 325.5,63.5 Z M 327.5,68.5 C 326.871,71.6401 325.204,74.1401 322.5,76C 326.348,76.1542 328.348,74.1542 328.5,70C 328.43,69.2352 328.097,68.7352 327.5,68.5 Z"/></g>
<g><path style="opacity:0.82" fill="#d9c9e0" d="M 414.5,77.5 C 412.474,78.0072 410.141,79.0072 407.5,80.5C 404.83,80.5816 404.83,79.4149 407.5,77C 409.885,76.4436 412.218,76.6103 414.5,77.5 Z"/></g>
<g><path style="opacity:1" fill="#ae3071" d="M 53.5,72.5 C 56.9099,72.4571 60.2432,72.9571 63.5,74C 74.4976,80.5898 79.6642,90.4232 79,103.5C 81.3513,110.519 85.8513,115.686 92.5,119C 77.1703,119.5 61.837,119.667 46.5,119.5C 32.4592,114.432 26.9592,104.432 30,89.5C 33.9174,78.3014 41.7507,72.6347 53.5,72.5 Z"/></g>
<g><path style="opacity:0.98" fill="#783d92" d="M 269.5,63.5 C 270.167,63.5 270.833,63.5 271.5,63.5C 271.5,64.5 271.5,65.5 271.5,66.5C 270.711,68.8878 270.711,71.5544 271.5,74.5C 271.5,75.1667 271.5,75.8333 271.5,76.5C 264.807,84.6738 256.14,88.1738 245.5,87C 244.429,86.1482 243.429,85.3149 242.5,84.5C 246.582,84.6564 250.582,84.1564 254.5,83C 265.013,80.6618 270.013,74.1618 269.5,63.5 Z"/></g>
<g><path style="opacity:1" fill="#9e6bb4" d="M 400.5,79.5 C 401.712,81.2637 401.379,82.9303 399.5,84.5C 396.697,85.7757 394.03,85.7757 391.5,84.5C 395.896,85.0565 398.896,83.3898 400.5,79.5 Z"/></g>
<g><path style="opacity:0.984" fill="#814b99" d="M 440.5,70.5 C 432.613,72.1203 432.78,73.787 441,75.5C 444.746,82.4893 442.579,85.656 434.5,85C 431.405,84.0646 429.071,82.2313 427.5,79.5C 429.865,80.5945 432.365,81.2612 435,81.5C 437.626,81.9497 439.126,80.9497 439.5,78.5C 439.5,77.8333 439.5,77.1667 439.5,76.5C 437.782,75.776 435.948,75.1094 434,74.5C 433.51,73.2068 433.343,71.8734 433.5,70.5C 435.833,70.5 438.167,70.5 440.5,70.5 Z"/></g>
</svg>
